<svg id="Group_5264" data-name="Group 5264" xmlns="http://www.w3.org/2000/svg" width="30" height="30" viewBox="0 0 30 30">
  <g id="Ellipse_174" data-name="Ellipse 174" fill="none" stroke="#ff0054" stroke-width="1">
    <circle cx="15" cy="15" r="15" stroke="none"/>
    <circle cx="15" cy="15" r="14.5" fill="none"/>
  </g>
  <path id="Path_18842" data-name="Path 18842" d="M2288.119,2340.862a4.6,4.6,0,0,0,2.542-4.095v-.005a4.613,4.613,0,1,0-6.694,4.1,7.559,7.559,0,0,0-5.48,7.183.479.479,0,0,0,0,.127.449.449,0,0,0,.888-.127,6.669,6.669,0,0,1,13.338,0,.444.444,0,1,0,.888,0A7.554,7.554,0,0,0,2288.119,2340.862Zm-2.065-.374a3.724,3.724,0,0,1-.005-7.448h0a3.725,3.725,0,0,1,.005,7.449Z" transform="translate(-2271.041 -2326.149)" fill="#ff0054"/>
</svg>
