<svg xmlns="http://www.w3.org/2000/svg" width="45" height="45" viewBox="0 0 45 45">
  <g id="Group_8489" data-name="Group 8489" transform="translate(-1342 -590)">
    <circle id="Ellipse_2288" data-name="Ellipse 2288" cx="22.5" cy="22.5" r="22.5" transform="translate(1342 590)" fill="#fff"/>
    <g id="Group_8178" data-name="Group 8178" transform="translate(-133.005 -152.697)">
      <path id="Path_23326" data-name="Path 23326" d="M273.5,92l0-.006,0-.006a11,11,0,0,0-11-11h0a11,11,0,0,0,0,22h.011A11.029,11.029,0,0,0,273.5,92m-11,8.179a.589.589,0,0,0-.589.589v1.019a9.821,9.821,0,0,1-9.206-9.2h1.02a.589.589,0,1,0,0-1.178h-1.02a9.821,9.821,0,0,1,9.206-9.2v1.019a.588.588,0,0,0,1.177,0V82.206a9.835,9.835,0,0,1,9.2,9.2H271.28a.589.589,0,0,0,0,1.178H272.3a9.82,9.82,0,0,1-9.2,9.2v-1.019a.589.589,0,0,0-.588-.589" transform="translate(1235.5 673.7)" fill="#ff0054"/>
      <path id="Path_23327" data-name="Path 23327" d="M269.131,90.161a.641.641,0,0,0-1.1-.444l-4.552,4.616L261.4,92.279a.678.678,0,0,0-.456-.184.64.64,0,0,0-.443,1.1l2.537,2.5a.64.64,0,0,0,.449.184v-.151h.005v.151a.64.64,0,0,0,.455-.192l5-5.07a.628.628,0,0,0,.185-.455" transform="translate(1234.364 672.754)" fill="#ff0054"/>
    </g>
  </g>
</svg>
