<svg xmlns="http://www.w3.org/2000/svg" width="45" height="45" viewBox="0 0 45 45">
  <g id="Group_8487" data-name="Group 8487" transform="translate(-1342 -509)">
    <circle id="Ellipse_1746" data-name="Ellipse 1746" cx="22.5" cy="22.5" r="22.5" transform="translate(1342 509)" fill="#fff"/>
    <g id="Group_8180" data-name="Group 8180" transform="translate(98.693 -153.998)">
      <path id="Path_23324" data-name="Path 23324" d="M41.478,4.8A1.33,1.33,0,0,0,40.435,4.3h-20.3a1.329,1.329,0,0,0-1.042.507l-.02.025-.023.032a1.321,1.321,0,0,0-.243.765v12.76a1.326,1.326,0,0,0,.5,1.037l.033.026.032.024a1.328,1.328,0,0,0,.762.242h20.3a1.323,1.323,0,0,0,.754-.237l.035-.024.024-.02a1.33,1.33,0,0,0,.516-1.048V5.627a1.331,1.331,0,0,0-.246-.768M30.86,11.981a.954.954,0,0,1-.567.173h-.022a1.054,1.054,0,0,1-.555-.165L21.074,5.505H39.492Zm-5.323.678a.606.606,0,0,0-.083-.793.583.583,0,0,0-.435-.16.615.615,0,0,0-.434.211l-4.577,5.66V6.22L29,12.962a2.262,2.262,0,0,0,2.57-.008l8.981-6.735V17.574l-4.614-5.7a.6.6,0,0,0-.419-.193.591.591,0,0,0-.434.16.6.6,0,0,0-.048.836L39.758,18.5H20.813Z" transform="translate(1235.5 673.7)" fill="#ff0054"/>
    </g>
  </g>
</svg>
