<svg xmlns="http://www.w3.org/2000/svg" width="40.823" height="29.03" viewBox="0 0 40.823 29.03">
  <g id="Group_5006" data-name="Group 5006" transform="translate(-159.16 -218.907)">
    <path id="Path_17653" data-name="Path 17653" d="M196.517,311.72a2.924,2.924,0,1,0-.827.827l2.651,2.651a.582.582,0,0,0,.413.171h2.337V314.2H199Zm-2.436.143a1.753,1.753,0,1,1,1.753-1.753,1.726,1.726,0,0,1-.172.755,1.744,1.744,0,0,1-.827.825A1.72,1.72,0,0,1,194.081,311.863Z" transform="translate(-27.327 -86.764)" fill="#252525"/>
    <path id="Path_17654" data-name="Path 17654" d="M198.341,419.361l-2.651,2.651a2.924,2.924,0,1,0,.827.827l2.48-2.48h2.094V419.19h-2.337A.582.582,0,0,0,198.341,419.361Zm-2.508,5.087a1.753,1.753,0,1,1-1.753-1.753,1.719,1.719,0,0,1,.754.172,1.747,1.747,0,0,1,1,1.58Z" transform="translate(-27.327 -183.287)" fill="#252525"/>
    <path id="Path_17655" data-name="Path 17655" d="M162.081,371.19a2.921,2.921,0,1,0,2.861,3.505h8.823v-1.168h-8.823A2.926,2.926,0,0,0,162.081,371.19Zm1.753,2.921a1.723,1.723,0,0,1-.1.584,1.753,1.753,0,1,1,0-1.168A1.722,1.722,0,0,1,163.833,374.111Z" transform="translate(0 -141.814)" fill="#252525"/>
    <path id="Path_17660" data-name="Path 17660" d="M296.839,304.451c-.007-.02-.015-.041-.023-.061a.568.568,0,0,0-.124-.177l-.013-.013-2.67-2.591-.825-.8L289.254,297l-.019-.02-.02-.02a.539.539,0,0,0-.044-.038.511.511,0,0,0-.095-.061.56.56,0,0,0-.105-.043.384.384,0,0,0-.056-.013.6.6,0,0,0-.112-.011H273.614a2.479,2.479,0,0,0-1.285.354,2.363,2.363,0,0,0-1.168,2.027v24.267a2.421,2.421,0,0,0,2.454,2.381h20.8a2.421,2.421,0,0,0,2.454-2.381V304.615c0-.02,0-.038,0-.058A.633.633,0,0,0,296.839,304.451Zm-1.144,5.32v13.667a1.269,1.269,0,0,1-1.285,1.247h-20.8a1.268,1.268,0,0,1-1.285-1.247V299.171a1.268,1.268,0,0,1,1.285-1.247h14.6v6.691a.576.576,0,0,0,.584.567H295.7Zm-4.2-5.724h-2.11v-5.321l2.971,2.883.827.8,1.685,1.636Z" transform="translate(-96.881 -77.883)" fill="#252525"/>
    <path id="Path_17661" data-name="Path 17661" d="M340.76,442.39v1.168h7.477V442.39H340.76Z" transform="translate(-156.027 -202.87)" fill="#ff0054"/>
    <rect id="Rectangle_136" data-name="Rectangle 136" width="2.804" height="1.168" transform="translate(192.856 239.52)" fill="#ff0054"/>
    <path id="Path_17662" data-name="Path 17662" d="M348.237,392.358V391.19H340.76v1.168h7.477Z" transform="translate(-156.027 -158.918)" fill="#ff0054"/>
    <path id="Path_17663" data-name="Path 17663" d="M398.36,392.033v.326h2.8V391.19h-2.8Z" transform="translate(-205.504 -158.918)" fill="#ff0054"/>
    <path id="Path_17664" data-name="Path 17664" d="M366.36,416.79v1.168h7.477V416.79H366.36Z" transform="translate(-178.177 -180.894)" fill="#ff0054"/>
    <path id="Path_17665" data-name="Path 17665" d="M343.028,417.958h.536V416.79h-2.8v1.168h2.268Z" transform="translate(-155.914 -180.894)" fill="#ff0054"/>
    <path id="Path_17666" data-name="Path 17666" d="M311.1,314.693v13.149a.248.248,0,0,0,0,.138v9.732h1.168V313.59H311.1Z" transform="translate(-130.415 -92.229)" fill="#252525"/>
  </g>
</svg>
