<svg xmlns="http://www.w3.org/2000/svg" width="29.026" height="29.025" viewBox="0 0 29.026 29.025">
  <g id="Group_4997" data-name="Group 4997" transform="translate(0)">
    <g id="Group_4994" data-name="Group 4994" transform="translate(0)">
      <g id="Group_4992" data-name="Group 4992">
        <path id="Path_17646" data-name="Path 17646" d="M309.843,40.861a.6.6,0,0,1-.551-.355,14.513,14.513,0,0,1,22.6-17.063l2.88-2.493-.842,7.535-7.575-.252,2.75-2.379a10.884,10.884,0,0,0-17.479,8.659.6.6,0,1,1-1.209,0,12.093,12.093,0,0,1,20.025-9.129l.526.457-1.486,1.286,3.371.112.375-3.352-1.351,1.168-.4-.363a13.305,13.305,0,0,0-21.09,15.313.605.605,0,0,1-.3.8A.62.62,0,0,1,309.843,40.861Z" transform="translate(-308 -20)" fill="#252525"/>
      </g>
      <g id="Group_4993" data-name="Group 4993" transform="translate(2.251 8.165)">
        <path id="Path_17647" data-name="Path 17647" d="M323.985,54.363A14.472,14.472,0,0,1,314.6,50.92l-2.88,2.493.842-7.535,7.575.252-2.75,2.379a10.884,10.884,0,0,0,17.479-8.659.6.6,0,0,1,1.209,0,12.093,12.093,0,0,1-20.025,9.129l-.526-.457,1.486-1.286-3.371-.112-.375,3.352,1.351-1.168.4.363a13.305,13.305,0,0,0,21.09-15.313.6.6,0,1,1,1.1-.5,14.519,14.519,0,0,1-13.221,20.506Z" transform="translate(-311.723 -33.503)" fill="#252525"/>
      </g>
    </g>
    <g id="Group_4995" data-name="Group 4995" transform="translate(9.675 10.28)">
      <path id="Path_17648" data-name="Path 17648" d="M328.233,45.466H324v-.6a3.5,3.5,0,0,1,1.032-2.492l1.1-1.1a3.024,3.024,0,0,0,.892-2.153.907.907,0,1,0-1.814,0v.907a.6.6,0,0,1-1.209,0v-.907a2.116,2.116,0,0,1,4.233,0,4.224,4.224,0,0,1-1.246,3.008l-1.1,1.1a2.307,2.307,0,0,0-.6,1.032h2.944a.6.6,0,1,1,0,1.209Z" transform="translate(-324 -37)" fill="#ff0054"/>
    </g>
    <g id="Group_4996" data-name="Group 4996" transform="translate(14.513 10.28)">
      <path id="Path_17649" data-name="Path 17649" d="M335.628,46.07a.6.6,0,0,1-.6-.6V43.047H332v-1.37L334.673,37h1.56v4.838h1.209a.6.6,0,1,1,0,1.209h-1.209v2.419A.6.6,0,0,1,335.628,46.07ZM333.3,41.838h1.723V38.824Z" transform="translate(-332 -37)" fill="#ff0054"/>
    </g>
  </g>
</svg>
