<svg xmlns="http://www.w3.org/2000/svg" width="42" height="42" viewBox="0 0 42 42">
  <g id="Group_7496" data-name="Group 7496" transform="translate(-1658 -6887.383)">
    <g id="Group_4585" data-name="Group 4585" transform="translate(15 1062.383)">
      <g id="Layer" transform="translate(1643 5825)">
        <g id="Shadow" fill="none" stroke="#fff" stroke-width="1">
          <rect width="42" height="42" rx="21" stroke="none"/>
          <rect x="0.5" y="0.5" width="41" height="41" rx="20.5" fill="none"/>
        </g>
        <g id="Fill" fill="none" stroke="#fff" stroke-width="1" opacity="0.1">
          <rect width="42" height="42" rx="21" stroke="none"/>
          <rect x="0.5" y="0.5" width="41" height="41" rx="20.5" fill="none"/>
        </g>
      </g>
    </g>
    <g id="instagram-logo" transform="translate(1667.457 6896.839)">
      <path id="Path_12" data-name="Path 12" d="M16.716,0H6.371A6.379,6.379,0,0,0,0,6.371V16.716a6.378,6.378,0,0,0,6.371,6.371H16.716a6.379,6.379,0,0,0,6.372-6.371V6.371A6.379,6.379,0,0,0,16.716,0Zm4.323,16.716a4.328,4.328,0,0,1-4.323,4.323H6.371a4.328,4.328,0,0,1-4.323-4.323V6.371A4.328,4.328,0,0,1,6.371,2.048H16.716a4.328,4.328,0,0,1,4.323,4.323V16.716Z" transform="translate(0 0)" fill="#fff"/>
      <path id="Path_13" data-name="Path 13" d="M46.917,40.97a5.949,5.949,0,1,0,5.949,5.949A5.956,5.956,0,0,0,46.917,40.97Zm0,9.849a3.9,3.9,0,1,1,3.9-3.9A3.9,3.9,0,0,1,46.917,50.819Z" transform="translate(-35.373 -35.375)" fill="#fff"/>
      <path id="Path_14" data-name="Path 14" d="M120.423,28.251a1.5,1.5,0,1,0,1.062.44A1.508,1.508,0,0,0,120.423,28.251Z" transform="translate(-102.681 -24.393)" fill="#fff"/>
    </g>
  </g>
</svg>
