<svg xmlns="http://www.w3.org/2000/svg" width="45" height="45" viewBox="0 0 45 45">
  <g id="Group_8488" data-name="Group 8488" transform="translate(-1575 -590)">
    <path id="Path_23330" data-name="Path 23330" d="M22.5,0A22.5,22.5,0,1,1,0,22.5,22.5,22.5,0,0,1,22.5,0Z" transform="translate(1575 590)" fill="#fff"/>
    <g id="Group_8184" data-name="Group 8184" transform="translate(354.5 -156.698)">
      <path id="Path_23328" data-name="Path 23328" d="M7.526,85A7.547,7.547,0,0,0,0,92.524c0,1.659.966,4.161,3.037,7.875,1.368,2.451,2.764,4.592,2.866,4.74l1.01,1.53a.733.733,0,0,0,.614.329.735.735,0,0,0,.61-.329l1.008-1.53c.013-.018,1.429-2.17,2.867-4.74,2.072-3.712,3.037-6.215,3.037-7.875A7.548,7.548,0,0,0,7.526,85M13.6,92.524c-.012,1.368-.975,3.778-2.864,7.161-.561,1.007-1.492,2.611-2.737,4.541l-.464.708-.408-.62c-.346-.527-1.566-2.421-2.793-4.628-1.892-3.394-2.852-5.8-2.852-7.161a6.065,6.065,0,0,1,6.054-6.063h0a6.068,6.068,0,0,1,6.06,6.061" transform="translate(1235.5 673.7)" fill="#ff0054"/>
      <path id="Path_23329" data-name="Path 23329" d="M2.676,91.892a4.255,4.255,0,1,0,4.255-4.255,4.259,4.259,0,0,0-4.255,4.255m7.042,0a2.787,2.787,0,1,1-2.787-2.786,2.793,2.793,0,0,1,2.787,2.786" transform="translate(1236.095 674.287)" fill="#ff0054"/>
    </g>
  </g>
</svg>
