<svg xmlns="http://www.w3.org/2000/svg" width="45" height="45" viewBox="0 0 45 45">
  <g id="Group_8486" data-name="Group 8486" transform="translate(-1575 -507)">
    <circle id="Ellipse_1746" data-name="Ellipse 1746" cx="22.5" cy="22.5" r="22.5" transform="translate(1575 507)" fill="#fff"/>
    <g id="Group_8183" data-name="Group 8183" transform="translate(96.992 -154.7)">
      <path id="Path_23325" data-name="Path 23325" d="M253.926,9.715c1.961,5.134,7.009,11.109,13.458,12.094a13.67,13.67,0,0,0,2.036.167c.192.016.382.024.571.024a6.627,6.627,0,0,0,6.582-6.073c0-.039.007-.079.009-.119a1.391,1.391,0,0,0-.687-1.4c-1.175-.662-2.182-1.328-2.83-1.757a13.17,13.17,0,0,0-1.29-.8,2.193,2.193,0,0,0-2.6.212,1.388,1.388,0,0,0-.207.258,8.134,8.134,0,0,1-1.764,2.1,14.974,14.974,0,0,1-3.367-2.284A7.733,7.733,0,0,1,261.2,8.977a4.368,4.368,0,0,0,1.436-2.961l-.035-.223A18.947,18.947,0,0,0,260.1.652l-.084-.1c-.567-.572-1.572-.693-3.163-.384a1.383,1.383,0,0,0-.708.385,9.156,9.156,0,0,0-2.233,9.117Zm3.221-8.074c1.263-.244,1.674-.1,1.772-.049a17.479,17.479,0,0,1,2.211,4.53c-.03.509-.3,1.078-1.353,2.174l-.331.346.172.447a9.116,9.116,0,0,0,3.287,4.225A16.03,16.03,0,0,0,267,15.986l.409.184.358-.271a9.69,9.69,0,0,0,2.465-2.756.7.7,0,0,1,.787.007,12.014,12.014,0,0,1,1.2.744c.672.444,1.681,1.112,2.867,1.784l-.014.149a5.073,5.073,0,0,1-1.8,3.469,5.146,5.146,0,0,1-3.8,1.176,12.519,12.519,0,0,1-1.856-.149c-5.847-.894-10.457-6.385-12.274-11.12a7.7,7.7,0,0,1,1.807-7.561" transform="translate(1235.5 673.7)" fill="#ff0054"/>
    </g>
  </g>
</svg>
