<svg xmlns="http://www.w3.org/2000/svg" width="42" height="42" viewBox="0 0 42 42">
  <g id="Group_7495" data-name="Group 7495" transform="translate(-1725 -6887.383)">
    <g id="youtube-logo" transform="translate(1734.953 6894.025)">
      <g id="Group_6" data-name="Group 6" transform="translate(0)">
        <path id="Path_4" data-name="Path 4" d="M65.951,219.461a2.8,2.8,0,0,0-2.386-2.176q-2.743-.3-8.274-.3t-8.259.3a2.7,2.7,0,0,0-1.535.7,2.831,2.831,0,0,0-.865,1.476,25.835,25.835,0,0,0-.388,5.218,25.3,25.3,0,0,0,.388,5.218,2.725,2.725,0,0,0,.857,1.476,2.642,2.642,0,0,0,1.528.686,79.7,79.7,0,0,0,8.274.313,79.68,79.68,0,0,0,8.274-.313,2.608,2.608,0,0,0,1.521-.686,2.829,2.829,0,0,0,.865-1.476,25.832,25.832,0,0,0,.388-5.218A25.32,25.32,0,0,0,65.951,219.461Zm-15.4,1.506h-1.6v8.482H47.466v-8.482H45.9v-1.4h4.651v1.4Zm4.025,8.482H53.25v-.805a2.182,2.182,0,0,1-1.521.909.8.8,0,0,1-.864-.552,3.69,3.69,0,0,1-.119-1.088v-5.829h1.327v5.426a4.112,4.112,0,0,0,.015.522q.045.313.313.313.4,0,.85-.626v-5.635h1.327v7.364Zm5.069-2.206a5.507,5.507,0,0,1-.134,1.491,1.032,1.032,0,0,1-1.059.82,1.851,1.851,0,0,1-1.387-.82v.715H55.74v-9.884h1.327V222.8a1.8,1.8,0,0,1,1.387-.8,1.036,1.036,0,0,1,1.059.835,5.326,5.326,0,0,1,.134,1.476Zm5.039-1.222H62.016v1.3q0,1.029.686,1.028a.57.57,0,0,0,.6-.537,7.43,7.43,0,0,0,.03-.909h1.357v.194a6.6,6.6,0,0,1-.03.865,1.845,1.845,0,0,1-1.923,1.595,1.914,1.914,0,0,1-1.61-.76,2.8,2.8,0,0,1-.432-1.729v-2.579a2.878,2.878,0,0,1,.417-1.729,2.039,2.039,0,0,1,3.176,0,2.956,2.956,0,0,1,.4,1.729v1.536Z" transform="translate(-44.245 -205.656)" fill="#fff"/>
        <path id="Path_5" data-name="Path 5" d="M290.458,336.043a.958.958,0,0,0-.671.328v4.487a.957.957,0,0,0,.671.328q.581,0,.582-1v-3.145Q291.039,336.043,290.458,336.043Z" transform="translate(-276.966 -318.497)" fill="#fff"/>
        <path id="Path_6" data-name="Path 6" d="M385.252,336.043q-.671,0-.671,1.013v.686h1.341v-.686Q385.923,336.043,385.252,336.043Z" transform="translate(-366.81 -318.497)" fill="#fff"/>
        <path id="Path_7" data-name="Path 7" d="M114.376,5.948v4.04h1.491V5.948L117.67,0h-1.521l-1.013,3.921L114.077,0H112.5q.417,1.252.969,2.788A25.263,25.263,0,0,1,114.376,5.948Z" transform="translate(-108.933)" fill="#fff"/>
        <path id="Path_8" data-name="Path 8" d="M213.831,54.741a1.834,1.834,0,0,0,1.58-.76,2.937,2.937,0,0,0,.417-1.759V49.613a2.909,2.909,0,0,0-.417-1.744,2.007,2.007,0,0,0-3.146,0,2.908,2.908,0,0,0-.417,1.744v2.609a2.979,2.979,0,0,0,.417,1.759A1.843,1.843,0,0,0,213.831,54.741Zm-.641-5.4q0-1.029.641-1.029t.641,1.029v3.131q0,1.044-.641,1.044t-.641-1.044Z" transform="translate(-203.097 -44.648)" fill="#fff"/>
        <path id="Path_9" data-name="Path 9" d="M310.2,56.365a2.145,2.145,0,0,0,1.536-.924v.82h1.357V48.822h-1.357V54.5q-.447.641-.85.641-.269,0-.313-.328a3.9,3.9,0,0,1-.015-.522V48.822H309.2V54.7a3.834,3.834,0,0,0,.119,1.118A.829.829,0,0,0,310.2,56.365Z" transform="translate(-295.363 -46.273)" fill="#fff"/>
      </g>
    </g>
    <g id="Fill" transform="translate(1725 6887.383)" fill="none" stroke="#fff" stroke-width="1">
      <rect width="42" height="42" rx="21" stroke="none"/>
      <rect x="0.5" y="0.5" width="41" height="41" rx="20.5" fill="none"/>
    </g>
  </g>
</svg>
