<svg xmlns="http://www.w3.org/2000/svg" width="72.641" height="58.501" viewBox="0 0 72.641 58.501">
  <g id="Group_8410" data-name="Group 8410" transform="translate(275.451 5190.278)">
    <path id="Path_17714" data-name="Path 17714" d="M1279.344,2833.788v-6.163h-5.216a13.744,13.744,0,0,0-1.774-4.28l3.69-3.687-4.36-4.36-3.687,3.688a13.8,13.8,0,0,0-4.28-1.771V2812h-6.164v5.216a13.781,13.781,0,0,0-4.28,1.771l-3.688-3.687-4.359,4.36,3.688,3.688a13.786,13.786,0,0,0-1.771,4.28h-5.216v6.163h5.216a13.745,13.745,0,0,0,1.773,4.28l-3.689,3.688,4.359,4.359,3.688-3.689a13.752,13.752,0,0,0,4.28,1.774v5.215h6.164V2844.2a13.769,13.769,0,0,0,4.28-1.774l3.688,3.689,4.36-4.359-3.69-3.688a13.746,13.746,0,0,0,1.774-4.28Zm-18.709,5.783a8.865,8.865,0,1,1,8.865-8.864A8.876,8.876,0,0,1,1260.634,2839.571Z" transform="translate(-1516.877 -7981.692)" fill="none" stroke="#ff0054" stroke-width="1"/>
    <path id="Path_17715" data-name="Path 17715" d="M1300.437,2821.41v-6.165h-5.214a13.759,13.759,0,0,0-1.773-4.279l3.688-3.688-4.358-4.36-3.689,3.689a13.723,13.723,0,0,0-4.278-1.773v-5.216h-6.165v5.216a13.734,13.734,0,0,0-4.278,1.773l-3.688-3.689-4.359,4.36,3.688,3.688a13.71,13.71,0,0,0-1.772,4.279h-5.216v6.165h5.216a13.715,13.715,0,0,0,1.772,4.279l-3.688,3.688,4.359,4.36,3.688-3.689a13.733,13.733,0,0,0,4.278,1.773v5.216h6.165v-5.216a13.722,13.722,0,0,0,4.278-1.773l3.689,3.689,4.358-4.36-3.688-3.688a13.764,13.764,0,0,0,1.773-4.279Zm-18.708,5.784a8.866,8.866,0,1,1,8.865-8.868A8.876,8.876,0,0,1,1281.729,2827.194Z" transform="translate(-1503.747 -7989.396)" fill="none" stroke="#ff0054" stroke-width="1"/>
  </g>
</svg>
