<svg xmlns="http://www.w3.org/2000/svg" width="289.334" height="84.413" viewBox="0 0 289.334 84.413">
  <g id="Group_5469" data-name="Group 5469" transform="translate(-1592.977 -6745.383)">
    <path id="Path_278" data-name="Path 278" d="M833.043,358.958a19.519,19.519,0,0,1,6.58,1.144,18.561,18.561,0,0,1,5.828,3.361,16.515,16.515,0,0,1,4.147,5.327,15.858,15.858,0,0,1,1.538,7.117,15.337,15.337,0,0,1-2.467,8.617,17.367,17.367,0,0,1-6.543,5.9,18.747,18.747,0,0,1-8.867,2.146,23.92,23.92,0,0,1-5.792-.645,21.117,21.117,0,0,1-4.292-1.5v16.449h-9.94V358.958Zm-9.869,9.3v14.16A21.966,21.966,0,0,0,827,383.523a22.719,22.719,0,0,0,4.613.464,9.544,9.544,0,0,0,6.83-2.4,7.558,7.558,0,0,0,2.538-5.685,6.456,6.456,0,0,0-2.86-5.722,11.729,11.729,0,0,0-6.722-1.93Z" transform="translate(779.743 6390.002)" fill="#fff"/>
    <rect id="Rectangle_92" data-name="Rectangle 92" width="9.082" height="51.49" transform="translate(1684.79 6745.383)" fill="#fff"/>
    <path id="Path_279" data-name="Path 279" d="M945.518,370.505a18.722,18.722,0,0,1,6.221,1,14.744,14.744,0,0,1,4.434,2.288v8.01a27.029,27.029,0,0,0-4.184-2.218,12.709,12.709,0,0,0-5.113-1.072,6.575,6.575,0,0,0-4.076,1.145,3.346,3.346,0,0,0-1.5,2.717,3.112,3.112,0,0,0,.857,2.109,7.173,7.173,0,0,0,3.289,1.681l4.077,1.358q8.224,2.433,8.223,9.511a9.912,9.912,0,0,1-1.895,5.973,12.975,12.975,0,0,1-5.077,4.111,16.308,16.308,0,0,1-7.044,1.5,22.273,22.273,0,0,1-7.079-1.145,18.342,18.342,0,0,1-5.221-2.5v-7.939a20.68,20.68,0,0,0,3.288,1.788,25.529,25.529,0,0,0,4.006,1.395,15.243,15.243,0,0,0,3.789.536,7.6,7.6,0,0,0,4.184-.966,3.109,3.109,0,0,0,1.466-2.754,2.44,2.44,0,0,0-1.216-2.145,16.463,16.463,0,0,0-3.576-1.574l-4.434-1.573q-4.148-1.358-5.721-3.862a10.918,10.918,0,0,1-1.574-5.935,10.249,10.249,0,0,1,1.753-5.972,11.906,11.906,0,0,1,4.9-4,16.941,16.941,0,0,1,7.223-1.466" transform="translate(772.795 6389.323)" fill="#fff"/>
    <path id="Path_280" data-name="Path 280" d="M985.8,370.505a17.444,17.444,0,0,1,9.117,2.289,15.2,15.2,0,0,1,5.865,6.33,20.458,20.458,0,0,1,2.039,9.332v3.861H976.645a9.472,9.472,0,0,0,3.576,5.865,11.09,11.09,0,0,0,7.008,2.217,16.047,16.047,0,0,0,7.151-1.575,24.647,24.647,0,0,0,5.149-3.218l-.072,8.44a21.16,21.16,0,0,1-5.113,3.038,17.918,17.918,0,0,1-7.473,1.538,19.845,19.845,0,0,1-9.761-2.431,18.773,18.773,0,0,1-7.008-6.651,17.967,17.967,0,0,1-2.611-9.655,19.956,19.956,0,0,1,2.36-9.654,19.043,19.043,0,0,1,6.507-7.044,17,17,0,0,1,9.44-2.682m-.216,7.938a8.1,8.1,0,0,0-5.649,2.074,10.752,10.752,0,0,0-3.146,5.578h17.306a7.412,7.412,0,0,0-2.86-5.756,9.332,9.332,0,0,0-5.65-1.9" transform="translate(770.675 6389.323)" fill="#fff"/>
    <path id="Path_281" data-name="Path 281" d="M1032.487,370.505a17.444,17.444,0,0,1,9.117,2.289,15.209,15.209,0,0,1,5.865,6.33,20.46,20.46,0,0,1,2.038,9.332v3.861h-26.174a9.471,9.471,0,0,0,3.577,5.865,11.086,11.086,0,0,0,7.007,2.217,16.048,16.048,0,0,0,7.151-1.575,24.62,24.62,0,0,0,5.149-3.218l-.072,8.44a21.15,21.15,0,0,1-5.113,3.038,17.914,17.914,0,0,1-7.473,1.538,19.846,19.846,0,0,1-9.761-2.431,18.763,18.763,0,0,1-7.007-6.651,17.966,17.966,0,0,1-2.611-9.655,19.966,19.966,0,0,1,2.359-9.654,19.052,19.052,0,0,1,6.508-7.044,17.007,17.007,0,0,1,9.44-2.682m-.215,7.938a8.1,8.1,0,0,0-5.65,2.074,10.756,10.756,0,0,0-3.147,5.578h17.306a7.41,7.41,0,0,0-2.861-5.756,9.328,9.328,0,0,0-5.649-1.9" transform="translate(767.931 6389.323)" fill="#fff"/>
    <path id="Path_282" data-name="Path 282" d="M1070.609,371.436v4.576a20.749,20.749,0,0,1,3.969-3.789,9.788,9.788,0,0,1,5.971-1.717,13.618,13.618,0,0,1,6.864,1.753,11.849,11.849,0,0,1,4.792,5.256,22,22,0,0,1,5.006-4.97,11.161,11.161,0,0,1,6.651-2.039,13.39,13.39,0,0,1,6.651,1.681,12.446,12.446,0,0,1,4.827,4.97,16.786,16.786,0,0,1,1.824,8.223v22.17h-9.082l-.072-20.954q0-3.647-1.894-5.435a6.953,6.953,0,0,0-4.971-1.787,6.072,6.072,0,0,0-4.076,1.466,21.61,21.61,0,0,0-3.219,3.468V407.55h-9.081L1084.7,386.6q0-3.647-1.9-5.435a6.851,6.851,0,0,0-4.9-1.787,6.451,6.451,0,0,0-4.076,1.394,18.064,18.064,0,0,0-3.218,3.254V407.55h-9.082V371.436Z" transform="translate(765.148 6389.323)" fill="#fff"/>
    <path id="Path_283" data-name="Path 283" d="M824.317,427.36v11.919h-1.6v-8.628l-3.682,3.932h-.426l-3.771-3.932v8.628h-1.6V427.36h.5l5.086,5.462,5-5.462Z" transform="translate(779.743 6385.98)" fill="#fff"/>
    <path id="Path_284" data-name="Path 284" d="M840.06,430.385a3.717,3.717,0,0,1,1.557.364,4.072,4.072,0,0,1,1.36,1.005v-1.191h1.459v8.893h-1.459v-1.512a4.4,4.4,0,0,1-1.254,1.245,3.159,3.159,0,0,1-1.806.532,3.911,3.911,0,0,1-2.081-.577,4.184,4.184,0,0,1-1.5-1.61,4.9,4.9,0,0,1-.561-2.383,5.392,5.392,0,0,1,.561-2.544,4.043,4.043,0,0,1,1.539-1.645,4.21,4.21,0,0,1,2.187-.578m.266,1.423a2.75,2.75,0,0,0-1.636.48,3.189,3.189,0,0,0-1.041,1.236,3.692,3.692,0,0,0-.364,1.628,3.52,3.52,0,0,0,.355,1.575,2.864,2.864,0,0,0,1.006,1.146,2.669,2.669,0,0,0,1.5.427,2.561,2.561,0,0,0,1.458-.427,2.943,2.943,0,0,0,1.014-1.183,3.612,3.612,0,0,0,.356-1.7l-.017-1.708a4.708,4.708,0,0,0-1.183-1.085,2.7,2.7,0,0,0-1.45-.391" transform="translate(778.418 6385.804)" fill="#fff"/>
    <path id="Path_285" data-name="Path 285" d="M857.39,430.563v1.778a4.572,4.572,0,0,1,1.244-1.423,2.513,2.513,0,0,1,1.495-.533,2.283,2.283,0,0,1,.925.178v1.69a2.218,2.218,0,0,0-1.138-.338,1.858,1.858,0,0,0-1.468.639,9.053,9.053,0,0,0-1.058,1.53v5.372h-1.459v-8.894Z" transform="translate(777.234 6385.804)" fill="#fff"/>
    <path id="Path_286" data-name="Path 286" d="M878.962,430.33l-4.126,3.877,4.358,5.017h-1.85l-3.521-4.055-1.264,1.173v2.882H871.1V426.416h1.459v8.253l4.429-4.339Z" transform="translate(776.342 6386.036)" fill="#fff"/>
    <path id="Path_287" data-name="Path 287" d="M892.2,430.385a4.2,4.2,0,0,1,2.277.569,3.552,3.552,0,0,1,1.361,1.547,5.18,5.18,0,0,1,.454,2.206v.872H889.46a3.324,3.324,0,0,0,.517,1.37,3.017,3.017,0,0,0,1.066.987,3.071,3.071,0,0,0,1.513.364,3.493,3.493,0,0,0,1.8-.489,6.577,6.577,0,0,0,1.4-1.077l-.017,1.583a3.426,3.426,0,0,1-.738.632,4.932,4.932,0,0,1-1.121.552,3.974,3.974,0,0,1-1.325.221,4.5,4.5,0,0,1-2.4-.64,4.6,4.6,0,0,1-1.646-1.7,4.651,4.651,0,0,1-.6-2.322,5.011,5.011,0,0,1,.552-2.331,4.466,4.466,0,0,1,1.52-1.706,3.929,3.929,0,0,1,2.216-.641m0,1.423a2.414,2.414,0,0,0-1.815.738,3.311,3.311,0,0,0-.89,1.788h5.355a2.878,2.878,0,0,0-.49-1.424,2.584,2.584,0,0,0-.969-.826,2.71,2.71,0,0,0-1.192-.276" transform="translate(775.353 6385.804)" fill="#fff"/>
    <path id="Path_288" data-name="Path 288" d="M909.518,427.852v2.563h2.6v1.368h-2.6V437a1.27,1.27,0,0,0,.284.872,1.11,1.11,0,0,0,.873.319,2.566,2.566,0,0,0,.888-.133,3.7,3.7,0,0,0,.622-.294v1.192a3.151,3.151,0,0,1-.756.454,2.815,2.815,0,0,1-1.076.168,2.124,2.124,0,0,1-1.717-.683,2.733,2.733,0,0,1-.578-1.824v-5.283h-1.708v-.427a3.41,3.41,0,0,0,1.459-1.289,9.707,9.707,0,0,0,1.031-2.216Z" transform="translate(774.269 6385.952)" fill="#fff"/>
    <path id="Path_289" data-name="Path 289" d="M925.329,430.307V439.2H923.87v-7.525h-1.405v-1.369Zm-.908-4.269a1.141,1.141,0,0,1,.863.364,1.188,1.188,0,0,1,.347.844,1.2,1.2,0,0,1-.347.837,1.185,1.185,0,0,1-1.725,0,1.2,1.2,0,0,1-.347-.837,1.191,1.191,0,0,1,.347-.844,1.142,1.142,0,0,1,.862-.364" transform="translate(773.323 6386.058)" fill="#fff"/>
    <path id="Path_290" data-name="Path 290" d="M938.053,430.563v1.4a4.931,4.931,0,0,1,.729-.72,4.41,4.41,0,0,1,1.006-.615,2.838,2.838,0,0,1,1.165-.248,3.447,3.447,0,0,1,1.654.4,2.933,2.933,0,0,1,1.192,1.21,4.194,4.194,0,0,1,.445,2.037v5.425h-1.459l-.018-5.283a2.681,2.681,0,0,0-.506-1.761,1.917,1.917,0,0,0-1.558-.605,2.354,2.354,0,0,0-1.414.525,6.311,6.311,0,0,0-1.236,1.218v5.906h-1.459v-8.894Z" transform="translate(772.491 6385.804)" fill="#fff"/>
    <path id="Path_291" data-name="Path 291" d="M959.016,430.385a3.73,3.73,0,0,1,1.557.363,4.073,4.073,0,0,1,1.36,1.006v-1.192h1.459v8.716a4.976,4.976,0,0,1-.64,2.633,4.018,4.018,0,0,1-1.708,1.565,5.287,5.287,0,0,1-2.33.516,4.585,4.585,0,0,1-1.4-.186,3.877,3.877,0,0,1-.987-.463q-.409-.275-.747-.524v-1.565q.268.195.7.507a5.2,5.2,0,0,0,1.051.559,3.623,3.623,0,0,0,1.379.25,3.939,3.939,0,0,0,1.6-.321,2.794,2.794,0,0,0,1.174-.943,2.507,2.507,0,0,0,.444-1.494v-1.867a4.4,4.4,0,0,1-1.255,1.245,3.156,3.156,0,0,1-1.805.533,3.9,3.9,0,0,1-2.081-.578,4.177,4.177,0,0,1-1.5-1.61,4.9,4.9,0,0,1-.561-2.383,5.394,5.394,0,0,1,.561-2.544,4.043,4.043,0,0,1,1.539-1.645,4.218,4.218,0,0,1,2.187-.577m.266,1.44a2.785,2.785,0,0,0-1.636.471,3.124,3.124,0,0,0-1.041,1.227,3.689,3.689,0,0,0-.364,1.627,3.459,3.459,0,0,0,.355,1.565,2.866,2.866,0,0,0,1.006,1.138,2.661,2.661,0,0,0,1.5.427,2.558,2.558,0,0,0,1.458-.427,2.969,2.969,0,0,0,1.014-1.173,3.568,3.568,0,0,0,.356-1.69l-.017-1.707a4.562,4.562,0,0,0-1.183-1.077,2.75,2.75,0,0,0-1.45-.382" transform="translate(771.426 6385.804)" fill="#fff"/>
    <path id="Path_292" data-name="Path 292" d="M993.521,427.361a4.367,4.367,0,0,1,1.974.472,4.12,4.12,0,0,1,1.558,1.352,3.6,3.6,0,0,1,.614,2.107,3.453,3.453,0,0,1-.587,1.94,4.329,4.329,0,0,1-1.592,1.432,4.628,4.628,0,0,1-2.232.543,7.191,7.191,0,0,1-2.882-.588v4.662h-1.6V427.361Zm-3.148,1.512v4.287a7.85,7.85,0,0,0,1.254.364,7.347,7.347,0,0,0,1.575.169,2.914,2.914,0,0,0,2.09-.7,2.261,2.261,0,0,0,.738-1.7,2.042,2.042,0,0,0-.419-1.3,2.749,2.749,0,0,0-1.094-.826,3.578,3.578,0,0,0-1.441-.294Z" transform="translate(769.425 6385.98)" fill="#fff"/>
    <rect id="Rectangle_93" data-name="Rectangle 93" width="1.459" height="12.807" transform="translate(1776.778 6812.452)" fill="#fff"/>
    <path id="Path_293" data-name="Path 293" d="M1024.642,430.385a3.715,3.715,0,0,1,1.557.364,4.071,4.071,0,0,1,1.36,1.005v-1.191h1.459v8.893h-1.459v-1.512a4.407,4.407,0,0,1-1.254,1.245,3.159,3.159,0,0,1-1.806.532,3.905,3.905,0,0,1-2.08-.577,4.178,4.178,0,0,1-1.5-1.61,4.912,4.912,0,0,1-.561-2.383,5.4,5.4,0,0,1,.561-2.544,4.042,4.042,0,0,1,1.539-1.645,4.209,4.209,0,0,1,2.187-.578m.267,1.423a2.75,2.75,0,0,0-1.637.48,3.2,3.2,0,0,0-1.041,1.236,3.706,3.706,0,0,0-.363,1.628,3.507,3.507,0,0,0,.355,1.575,2.855,2.855,0,0,0,1.005,1.146,2.669,2.669,0,0,0,1.5.427,2.56,2.56,0,0,0,1.458-.427,2.951,2.951,0,0,0,1.015-1.183,3.623,3.623,0,0,0,.355-1.7l-.017-1.708a4.714,4.714,0,0,0-1.183-1.085,2.7,2.7,0,0,0-1.449-.391" transform="translate(767.568 6385.804)" fill="#fff"/>
    <path id="Path_294" data-name="Path 294" d="M1042.924,427.852v2.563h2.6v1.368h-2.6V437a1.271,1.271,0,0,0,.284.872,1.109,1.109,0,0,0,.871.319,2.568,2.568,0,0,0,.89-.133,3.7,3.7,0,0,0,.622-.294v1.192a3.156,3.156,0,0,1-.756.454,2.816,2.816,0,0,1-1.076.168,2.123,2.123,0,0,1-1.717-.683,2.732,2.732,0,0,1-.578-1.824v-5.283h-1.707v-.427a3.411,3.411,0,0,0,1.459-1.289,9.717,9.717,0,0,0,1.031-2.216Z" transform="translate(766.428 6385.952)" fill="#fff"/>
    <path id="Path_295" data-name="Path 295" d="M1060.992,430.313v1.369h-2.6v7.525h-1.459v-7.525h-1.405v-1.369h1.405v-1.14a3.237,3.237,0,0,1,.409-1.716,2.643,2.643,0,0,1,1.05-1,2.821,2.821,0,0,1,1.3-.328,2.21,2.21,0,0,1,1.476.48v1.281a2.291,2.291,0,0,0-.64-.284,2.337,2.337,0,0,0-.746-.09,1.366,1.366,0,0,0-1.023.42,2.069,2.069,0,0,0-.365,1.395v.98Z" transform="translate(765.5 6386.053)" fill="#fff"/>
    <path id="Path_296" data-name="Path 296" d="M1075.116,430.385a4.518,4.518,0,0,1,2.4.641,4.594,4.594,0,0,1,1.644,1.706,4.694,4.694,0,0,1,.6,2.331,4.649,4.649,0,0,1-2.241,4.02,4.827,4.827,0,0,1-4.8,0,4.647,4.647,0,0,1-2.242-4.02,4.7,4.7,0,0,1,.6-2.331,4.593,4.593,0,0,1,1.645-1.706,4.514,4.514,0,0,1,2.4-.641m0,1.423a3.014,3.014,0,0,0-1.655.453,3.079,3.079,0,0,0-1.094,1.192,3.46,3.46,0,0,0-.382,1.61,3.412,3.412,0,0,0,.382,1.593,3.061,3.061,0,0,0,1.094,1.192,3.26,3.26,0,0,0,3.318,0,3.091,3.091,0,0,0,1.085-1.192,3.419,3.419,0,0,0,.382-1.593,3.466,3.466,0,0,0-.382-1.61,3.11,3.11,0,0,0-1.085-1.192,3,3,0,0,0-1.663-.453" transform="translate(764.622 6385.804)" fill="#fff"/>
    <path id="Path_297" data-name="Path 297" d="M1092.09,430.563v1.778a4.575,4.575,0,0,1,1.245-1.423,2.513,2.513,0,0,1,1.495-.533,2.284,2.284,0,0,1,.925.178v1.69a2.219,2.219,0,0,0-1.139-.338,1.854,1.854,0,0,0-1.467.639,9.041,9.041,0,0,0-1.059,1.53v5.372h-1.459v-8.894Z" transform="translate(763.437 6385.804)" fill="#fff"/>
    <path id="Path_298" data-name="Path 298" d="M1107.259,430.563V431.7a4.967,4.967,0,0,1,1.094-.9,2.9,2.9,0,0,1,1.575-.417,3.709,3.709,0,0,1,1.8.453,3,3,0,0,1,1.28,1.36,7.653,7.653,0,0,1,1.354-1.28,2.813,2.813,0,0,1,1.705-.533,3.722,3.722,0,0,1,1.7.4,3.144,3.144,0,0,1,1.281,1.21,3.885,3.885,0,0,1,.489,2.037v5.425h-1.459l-.016-5.283a2.409,2.409,0,0,0-.6-1.761,2.2,2.2,0,0,0-1.645-.605,2.007,2.007,0,0,0-1.335.48,7.986,7.986,0,0,0-1.084,1.121v6.048h-1.459l-.019-5.283a2.409,2.409,0,0,0-.6-1.761,2.2,2.2,0,0,0-1.645-.605,2.232,2.232,0,0,0-1.325.426,5.826,5.826,0,0,0-1.094,1.033v6.19H1105.8v-8.894Z" transform="translate(762.545 6385.804)" fill="#fff"/>
    <g id="Group_4781" data-name="Group 4781" transform="translate(1636.098 6751.546)">
      <rect id="Rectangle_94" data-name="Rectangle 94" width="6.112" height="9.08" transform="translate(8.126 5.744) rotate(-70.003)" fill="#cf0"/>
      <rect id="Rectangle_95" data-name="Rectangle 95" width="6.113" height="9.109" transform="matrix(0.342, -0.94, 0.94, 0.342, 30.711, 13.963)" fill="#cf0"/>
      <path id="Path_299" data-name="Path 299" d="M888.15,380.728l-5.47,15.026c-1.852,4.861-5.01,6.4-9.656,4.712a7.678,7.678,0,0,1-4.527-3.67c-.806-1.632-.735-3.777.211-6.377l5.389-14.806-8.532-3.105-5.48,15.057c-1.536,4.391-1.366,8.4.5,11.917s5.209,6.165,9.925,7.882c4.79,1.743,9.1,1.833,12.807.266s6.408-4.609,8.02-9.036l5.368-14.75Z" transform="translate(-859.047 -362.341)" fill="#cf0"/>
    </g>
  </g>
</svg>
