<svg id="Group_5259" data-name="Group 5259" xmlns="http://www.w3.org/2000/svg" width="229.578" height="41.708" viewBox="0 0 229.578 41.708">
  <path id="Path_278" data-name="Path 278" d="M828.952,358.958a15.488,15.488,0,0,1,5.221.907,14.726,14.726,0,0,1,4.624,2.667,13.1,13.1,0,0,1,3.29,4.227,12.583,12.583,0,0,1,1.22,5.647,12.171,12.171,0,0,1-1.957,6.837,13.78,13.78,0,0,1-5.192,4.681,14.876,14.876,0,0,1-7.036,1.7,18.98,18.98,0,0,1-4.6-.512,16.755,16.755,0,0,1-3.406-1.191v13.052h-7.887V358.958Zm-7.831,7.376V377.57a17.433,17.433,0,0,0,3.036.88,18.026,18.026,0,0,0,3.66.368,7.573,7.573,0,0,0,5.419-1.9,6,6,0,0,0,2.014-4.511,5.123,5.123,0,0,0-2.27-4.54,9.307,9.307,0,0,0-5.334-1.532Z" transform="translate(-813.234 -356.119)" fill="#fff"/>
  <rect id="Rectangle_92" data-name="Rectangle 92" width="7.206" height="40.856" transform="translate(72.851)" fill="#fff"/>
  <path id="Path_279" data-name="Path 279" d="M942.609,370.505a14.854,14.854,0,0,1,4.936.795,11.7,11.7,0,0,1,3.518,1.816v6.356a21.433,21.433,0,0,0-3.32-1.76,10.082,10.082,0,0,0-4.057-.851,5.217,5.217,0,0,0-3.234.908,2.655,2.655,0,0,0-1.191,2.156,2.47,2.47,0,0,0,.68,1.674,5.692,5.692,0,0,0,2.61,1.334l3.234,1.078q6.526,1.93,6.525,7.547a7.865,7.865,0,0,1-1.5,4.739,10.292,10.292,0,0,1-4.028,3.262,12.94,12.94,0,0,1-5.589,1.192,17.67,17.67,0,0,1-5.617-.908,14.554,14.554,0,0,1-4.143-1.986v-6.3a16.4,16.4,0,0,0,2.609,1.419,20.244,20.244,0,0,0,3.178,1.107,12.1,12.1,0,0,0,3.007.426,6.029,6.029,0,0,0,3.32-.766,2.467,2.467,0,0,0,1.164-2.185,1.936,1.936,0,0,0-.965-1.7,13.059,13.059,0,0,0-2.837-1.249l-3.518-1.248a8.056,8.056,0,0,1-4.539-3.064,8.662,8.662,0,0,1-1.249-4.709,8.133,8.133,0,0,1,1.391-4.739,9.446,9.446,0,0,1,3.887-3.177,13.441,13.441,0,0,1,5.731-1.163" transform="translate(-843.158 -359.043)" fill="#fff"/>
  <path id="Path_280" data-name="Path 280" d="M982.018,370.505a13.842,13.842,0,0,1,7.234,1.816,12.06,12.06,0,0,1,4.653,5.022,16.234,16.234,0,0,1,1.618,7.4v3.063H974.755a7.517,7.517,0,0,0,2.837,4.654,8.8,8.8,0,0,0,5.561,1.76,12.733,12.733,0,0,0,5.674-1.249,19.551,19.551,0,0,0,4.085-2.553l-.057,6.7a16.8,16.8,0,0,1-4.057,2.411,14.217,14.217,0,0,1-5.93,1.22,15.747,15.747,0,0,1-7.745-1.929,14.9,14.9,0,0,1-5.561-5.277,14.255,14.255,0,0,1-2.072-7.661,15.834,15.834,0,0,1,1.873-7.66,15.111,15.111,0,0,1,5.164-5.589,13.493,13.493,0,0,1,7.491-2.128m-.171,6.3a6.427,6.427,0,0,0-4.482,1.646,8.531,8.531,0,0,0-2.5,4.426H988.6a5.881,5.881,0,0,0-2.269-4.568,7.405,7.405,0,0,0-4.483-1.5" transform="translate(-852.287 -359.043)" fill="#fff"/>
  <path id="Path_281" data-name="Path 281" d="M1028.706,370.505a13.842,13.842,0,0,1,7.234,1.816,12.069,12.069,0,0,1,4.653,5.022,16.235,16.235,0,0,1,1.617,7.4v3.063h-20.769a7.514,7.514,0,0,0,2.838,4.654,8.8,8.8,0,0,0,5.56,1.76,12.731,12.731,0,0,0,5.674-1.249,19.535,19.535,0,0,0,4.085-2.553l-.057,6.7a16.787,16.787,0,0,1-4.057,2.411,14.213,14.213,0,0,1-5.93,1.22,15.748,15.748,0,0,1-7.745-1.929,14.892,14.892,0,0,1-5.56-5.277,14.258,14.258,0,0,1-2.071-7.661,15.843,15.843,0,0,1,1.872-7.66,15.119,15.119,0,0,1,5.164-5.589,13.5,13.5,0,0,1,7.491-2.128m-.17,6.3a6.429,6.429,0,0,0-4.483,1.646,8.534,8.534,0,0,0-2.5,4.426h13.732a5.88,5.88,0,0,0-2.27-4.568,7.4,7.4,0,0,0-4.483-1.5" transform="translate(-864.107 -359.043)" fill="#fff"/>
  <path id="Path_282" data-name="Path 282" d="M1068.733,371.244v3.631a16.466,16.466,0,0,1,3.149-3.007,7.767,7.767,0,0,1,4.738-1.362,10.805,10.805,0,0,1,5.447,1.391,9.4,9.4,0,0,1,3.8,4.17,17.454,17.454,0,0,1,3.972-3.943,8.856,8.856,0,0,1,5.277-1.618,10.626,10.626,0,0,1,5.277,1.334,9.876,9.876,0,0,1,3.83,3.943,13.319,13.319,0,0,1,1.447,6.525V399.9h-7.206l-.057-16.627a5.669,5.669,0,0,0-1.5-4.312,5.516,5.516,0,0,0-3.945-1.418,4.819,4.819,0,0,0-3.234,1.163,17.16,17.16,0,0,0-2.554,2.752V399.9h-7.206l-.056-16.627a5.664,5.664,0,0,0-1.5-4.312,5.436,5.436,0,0,0-3.887-1.418,5.119,5.119,0,0,0-3.235,1.106,14.345,14.345,0,0,0-2.553,2.582V399.9h-7.206V371.244Z" transform="translate(-876.094 -359.043)" fill="#fff"/>
  <g id="Group_4781" data-name="Group 4781" transform="translate(34.215 4.891)">
    <rect id="Rectangle_94" data-name="Rectangle 94" width="4.85" height="7.205" transform="translate(6.447 4.557) rotate(-70.003)" fill="#cf0"/>
    <rect id="Rectangle_95" data-name="Rectangle 95" width="4.85" height="7.228" transform="matrix(0.342, -0.94, 0.94, 0.342, 24.369, 11.08)" fill="#cf0"/>
    <path id="Path_299" data-name="Path 299" d="M882.14,379.03l-4.34,11.922c-1.47,3.857-3.975,5.081-7.662,3.739a6.093,6.093,0,0,1-3.592-2.912c-.639-1.295-.583-3,.167-5.06l4.276-11.748-6.77-2.464-4.348,11.947a11.429,11.429,0,0,0,.4,9.456c1.483,2.788,4.133,4.892,7.875,6.254,3.8,1.383,7.22,1.455,10.162.211a11.631,11.631,0,0,0,6.364-7.17l4.259-11.7Z" transform="translate(-859.048 -364.44)" fill="#cf0"/>
  </g>
</svg>
