<svg xmlns="http://www.w3.org/2000/svg" width="32.148" height="26" viewBox="0 0 32.148 26">
  <g id="Group_8410" data-name="Group 8410" transform="translate(275.451 5190.277)">
    <path id="Path_17714" data-name="Path 17714" d="M1258.194,2821.472v-2.68h-2.268a5.976,5.976,0,0,0-.771-1.861l1.6-1.6-1.9-1.9-1.6,1.6a5.993,5.993,0,0,0-1.861-.77V2812h-2.68v2.268a5.985,5.985,0,0,0-1.861.77l-1.6-1.6-1.9,1.9,1.6,1.6a6,6,0,0,0-.77,1.861h-2.268v2.68h2.268a5.979,5.979,0,0,0,.771,1.861l-1.6,1.6,1.9,1.9,1.6-1.6a5.976,5.976,0,0,0,1.861.771v2.268h2.68V2826a5.984,5.984,0,0,0,1.861-.771l1.6,1.6,1.9-1.9-1.6-1.6a5.979,5.979,0,0,0,.771-1.861Zm-8.134,2.514a3.854,3.854,0,1,1,3.854-3.854A3.859,3.859,0,0,1,1250.06,2823.986Z" transform="translate(-1516.877 -7993.043)" fill="none" stroke="#ff0054" stroke-width="1"/>
    <path id="Path_17715" data-name="Path 17715" d="M1279.289,2809.093v-2.68h-2.267a5.981,5.981,0,0,0-.771-1.86l1.6-1.6-1.895-1.9-1.6,1.6a5.968,5.968,0,0,0-1.86-.771v-2.268h-2.681v2.268a5.973,5.973,0,0,0-1.86.771l-1.6-1.6-1.9,1.9,1.6,1.6a5.962,5.962,0,0,0-.77,1.86h-2.268v2.68h2.268a5.966,5.966,0,0,0,.77,1.86l-1.6,1.6,1.9,1.9,1.6-1.6a5.973,5.973,0,0,0,1.86.771v2.268h2.681v-2.268a5.968,5.968,0,0,0,1.86-.771l1.6,1.6,1.895-1.9-1.6-1.6a5.985,5.985,0,0,0,.771-1.86Zm-8.134,2.515a3.855,3.855,0,1,1,3.854-3.855A3.859,3.859,0,0,1,1271.155,2811.608Z" transform="translate(-1523.092 -7989.396)" fill="none" stroke="#ff0054" stroke-width="1"/>
  </g>
</svg>
