<svg xmlns="http://www.w3.org/2000/svg" width="29" height="23.949" viewBox="0 0 29 23.949">
  <g id="Group_8485" data-name="Group 8485" transform="translate(-1452.001 -305.551)">
    <path id="Path_23433" data-name="Path 23433" d="M-4.841-3.17h.557l-.17.993L-5.1,0h-.466l.076-.861Zm-.489,2.3L-5.3,0h-.545l-.8-3.17h.853Zm2.071-2.3h.853L-3.2,0h-.545l.038-.908Zm-.293,2.3L-3.473,0h-.469l-.65-2.171-.164-1h.551Zm3.228-2.3H.233l-.17.993L-.587,0h-.466l.076-.861Zm-.489,2.3L-.781,0h-.545l-.8-3.17h.853Zm2.071-2.3h.853L1.317,0H.772L.81-.908ZM.965-.873,1.044,0H.576l-.65-2.171-.164-1H.312Zm3.228-2.3H4.75l-.17.993L3.93,0H3.464L3.54-.861ZM3.7-.867,3.737,0H3.192l-.8-3.17h.853Zm2.071-2.3h.853L5.834,0H5.289l.038-.908Zm-.293,2.3L5.562,0H5.093l-.65-2.171-.164-1h.551Z" transform="translate(1466.501 312.551)" fill="#ff0054"/>
    <path id="Path_23078" data-name="Path 23078" d="M28.542,77.463a.458.458,0,0,0-.458.458v2.8H.916v-14.8a.153.153,0,0,1,.153-.153h2.8a.458.458,0,1,0,0-.916h-2.8A1.07,1.07,0,0,0,0,65.927V83.869a1.07,1.07,0,0,0,1.068,1.068H27.931A1.07,1.07,0,0,0,29,83.869V77.92a.458.458,0,0,0-.458-.458m-.611,6.559H1.068a.153.153,0,0,1-.153-.153V81.638H28.084v2.231a.153.153,0,0,1-.153.153" transform="translate(1452.001 240.692)" fill="#ff0054"/>
    <path id="Path_23079" data-name="Path 23079" d="M404.082,65.775h24.8a.153.153,0,0,1,.153.153V80.792a.458.458,0,1,0,.916,0V65.927a1.07,1.07,0,0,0-1.068-1.068h-24.8a.458.458,0,1,0,0,.916" transform="translate(1051.05 240.692)" fill="#ff0054"/>
    <path id="Path_23080" data-name="Path 23080" d="M174.594,426.421h-1.523v-1.743a.458.458,0,0,0-.916,0v1.743H168.1v-1.743a.458.458,0,1,0-.916,0v1.743h-1.523a.458.458,0,1,0,0,.916h8.93a.458.458,0,0,0,0-.916" transform="translate(1296.372 -97.837)" fill="#ff0054"/>
    <path id="Path_23082" data-name="Path 23082" d="M235.678,364.1a.633.633,0,1,0,.633.633.633.633,0,0,0-.633-.633" transform="translate(1230.582 -41.204)" fill="#ff0054"/>
    <path id="Path_23087" data-name="Path 23087" d="M155.059,207.907H143.567a.458.458,0,0,0,0,.916h11.492a.458.458,0,0,0,0-.916" transform="translate(1317.188 106.937)" fill="#ff0054"/>
    <path id="Path_23088" data-name="Path 23088" d="M155.059,256.771H143.567a.458.458,0,0,0,0,.916h11.492a.458.458,0,0,0,0-.916" transform="translate(1317.188 60.905)" fill="#ff0054"/>
  </g>
</svg>
