<svg xmlns="http://www.w3.org/2000/svg" width="28.132" height="23.88" viewBox="0 0 28.132 23.88">
  <g id="Group_8412" data-name="Group 8412" transform="translate(-1257.85 -271.77)">
    <g id="Group_8391" data-name="Group 8391" transform="translate(161.215 -894.5)">
      <g id="Group_7890" data-name="Group 7890" transform="translate(1096.785 1166.42)">
        <path id="Path_23135" data-name="Path 23135" d="M4.1,19.263a.716.716,0,0,1-.718-.712v-3.5H2.29A2.293,2.293,0,0,1,0,12.762V2.289A2.293,2.293,0,0,1,2.29,0H20.02a2.293,2.293,0,0,1,2.29,2.29V12.762a2.285,2.285,0,0,1-2.274,2.285H8.069L4.641,19.015a.72.72,0,0,1-.539.248M2.29.742A1.55,1.55,0,0,0,.743,2.289V12.756A1.55,1.55,0,0,0,2.29,14.3H3.747a.375.375,0,0,1,.374.374v3.79l3.49-4.032a.371.371,0,0,1,.283-.126H20.02a1.549,1.549,0,0,0,1.548-1.548V2.289A1.549,1.549,0,0,0,20.02.742Z" transform="translate(0 0.001)" fill="#ff0054" stroke="#ff0054" stroke-width="0.3"/>
        <path id="Path_23136" data-name="Path 23136" d="M169.916,94.84a.7.7,0,0,1-.532-.247l-3.436-3.958H155.4a.374.374,0,0,1,0-.749h10.717a.367.367,0,0,1,.281.124l3.491,4.034v-3.79a.375.375,0,0,1,.374-.374h1.462a1.55,1.55,0,0,0,1.548-1.548V77.86a1.55,1.55,0,0,0-1.548-1.548.371.371,0,1,1,0-.743,2.293,2.293,0,0,1,2.29,2.29V88.333a2.293,2.293,0,0,1-2.29,2.29h-1.094v3.5a.7.7,0,0,1-.465.67.716.716,0,0,1-.253.048" transform="translate(-146.185 -71.26)" fill="#ff0054" stroke="#ff0054" stroke-width="0.3"/>
      </g>
      <path id="Path_23430" data-name="Path 23430" d="M-12.106-2.42a.527.527,0,0,0-.069-.277.6.6,0,0,0-.246-.206,2.872,2.872,0,0,0-.5-.187,3.308,3.308,0,0,1-.461-.167,1.591,1.591,0,0,1-.352-.214.851.851,0,0,1-.225-.277.789.789,0,0,1-.078-.358.831.831,0,0,1,.146-.482.985.985,0,0,1,.409-.334,1.451,1.451,0,0,1,.616-.122,1.372,1.372,0,0,1,.663.148,1.056,1.056,0,0,1,.415.386A.975.975,0,0,1-11.651-4h-.462a.717.717,0,0,0-.082-.346.571.571,0,0,0-.25-.238.929.929,0,0,0-.426-.086.946.946,0,0,0-.4.073.518.518,0,0,0-.233.2.544.544,0,0,0-.076.287.422.422,0,0,0,.083.257.721.721,0,0,0,.261.2,2.642,2.642,0,0,0,.46.171,2.813,2.813,0,0,1,.642.253,1.009,1.009,0,0,1,.371.341.876.876,0,0,1,.12.464.816.816,0,0,1-.149.488.957.957,0,0,1-.419.322,1.628,1.628,0,0,1-.635.114,1.7,1.7,0,0,1-.47-.066,1.387,1.387,0,0,1-.419-.2,1.02,1.02,0,0,1-.3-.328.893.893,0,0,1-.113-.454h.46a.637.637,0,0,0,.069.306.6.6,0,0,0,.187.211.826.826,0,0,0,.27.122,1.267,1.267,0,0,0,.317.039,1.067,1.067,0,0,0,.4-.068.553.553,0,0,0,.251-.191A.494.494,0,0,0-12.106-2.42ZM-10.469-5l1.125,2.819L-8.219-5h.448l-1.4,3.449h-.348L-10.917-5Zm-.2,0,.064,2.1v1.348h-.457V-5Zm3.042,0v3.449h-.457V-2.9L-8.02-5ZM-4.987-2.42A.527.527,0,0,0-5.056-2.7.6.6,0,0,0-5.3-2.9a2.872,2.872,0,0,0-.5-.187,3.308,3.308,0,0,1-.461-.167,1.591,1.591,0,0,1-.352-.214.851.851,0,0,1-.225-.277.789.789,0,0,1-.078-.358.831.831,0,0,1,.146-.482.985.985,0,0,1,.409-.334,1.451,1.451,0,0,1,.616-.122,1.372,1.372,0,0,1,.663.148,1.056,1.056,0,0,1,.415.386A.975.975,0,0,1-4.533-4h-.462a.717.717,0,0,0-.082-.346.571.571,0,0,0-.25-.238.929.929,0,0,0-.426-.086.946.946,0,0,0-.4.073.518.518,0,0,0-.233.2.544.544,0,0,0-.076.287.422.422,0,0,0,.083.257.721.721,0,0,0,.261.2,2.642,2.642,0,0,0,.46.171,2.813,2.813,0,0,1,.642.253,1.009,1.009,0,0,1,.371.341.876.876,0,0,1,.12.464.816.816,0,0,1-.149.488.957.957,0,0,1-.419.322,1.628,1.628,0,0,1-.635.114,1.7,1.7,0,0,1-.47-.066,1.387,1.387,0,0,1-.419-.2,1.02,1.02,0,0,1-.3-.328.893.893,0,0,1-.113-.454h.46a.637.637,0,0,0,.069.306.6.6,0,0,0,.187.211.826.826,0,0,0,.27.122,1.267,1.267,0,0,0,.317.039,1.067,1.067,0,0,0,.4-.068.553.553,0,0,0,.251-.191A.494.494,0,0,0-4.987-2.42Z" transform="translate(1115.227 1174)" fill="#ff0054"/>
      <path id="Path_23435" data-name="Path 23435" d="M-10.469-5l1.125,2.819L-8.219-5h.448l-.168.415L-9.171-1.548h-.348L-10.917-5Zm-.2,0,.064,2.1v1.348h-.457V-5Zm3.042,0v3.449h-.457V-2.9L-8.02-5ZM-4.987-2.42A.527.527,0,0,0-5.056-2.7.6.6,0,0,0-5.3-2.9a2.872,2.872,0,0,0-.5-.187,3.308,3.308,0,0,1-.461-.167,1.591,1.591,0,0,1-.352-.214.851.851,0,0,1-.225-.277.789.789,0,0,1-.078-.358.831.831,0,0,1,.146-.482.985.985,0,0,1,.409-.334,1.451,1.451,0,0,1,.616-.122,1.372,1.372,0,0,1,.663.148,1.056,1.056,0,0,1,.415.386A.975.975,0,0,1-4.533-4h-.462a.717.717,0,0,0-.082-.346.571.571,0,0,0-.25-.238.929.929,0,0,0-.426-.086.946.946,0,0,0-.4.073.518.518,0,0,0-.233.2.544.544,0,0,0-.076.287.422.422,0,0,0,.083.257.721.721,0,0,0,.261.2,2.642,2.642,0,0,0,.46.171,2.813,2.813,0,0,1,.642.253,1.009,1.009,0,0,1,.371.341.876.876,0,0,1,.12.464.816.816,0,0,1-.149.488.957.957,0,0,1-.419.322,1.628,1.628,0,0,1-.635.114,1.7,1.7,0,0,1-.47-.066,1.387,1.387,0,0,1-.419-.2,1.02,1.02,0,0,1-.3-.328.893.893,0,0,1-.113-.454h.46a.637.637,0,0,0,.069.306.6.6,0,0,0,.187.211.826.826,0,0,0,.27.122,1.267,1.267,0,0,0,.317.039,1.067,1.067,0,0,0,.4-.068.553.553,0,0,0,.251-.191A.494.494,0,0,0-4.987-2.42Z" transform="translate(1121.227 1179.711)" fill="#ff0054"/>
      <path id="Path_23436" data-name="Path 23436" d="M-10.469-5l1.125,2.819L-8.219-5h.448l-.168.415L-9.171-1.548h-.348L-10.917-5Zm-.2,0,.064,2.1v1.348h-.457V-5Zm3.042,0v3.449h-.457V-2.9L-8.02-5Z" transform="translate(1116.95 1179.711)" fill="#ff0054"/>
    </g>
  </g>
</svg>
