<svg xmlns="http://www.w3.org/2000/svg" width="29" height="27.709" viewBox="0 0 29 27.709">
  <g id="Group_8411" data-name="Group 8411" transform="translate(-867.001 -1487.532)">
    <path id="Path_23434" data-name="Path 23434" d="M-3.061,0h-.613l-1.1-1.83V0h-.613V-2.844h.613l1.105,1.832V-2.844h.611ZM-.569,0h-1.5V-.494h1.5Zm-1.3,0h-.615V-2.844h.615ZM-.765-1.223H-2.071V-1.7H-.765Zm.193-1.125h-1.5v-.5h1.5Zm1.656-.5h.328L1.5-2.51.9,0H.548L.524-.377ZM.731-.371.675,0H.282L-.343-2.844H.269ZM2.419-2.844h.609L2.405,0H2.011L1.962-.381ZM2.169-.365,2.14,0H1.784l-.6-2.512.1-.332H1.6ZM4.882-.75a.324.324,0,0,0-.041-.166.4.4,0,0,0-.157-.134,2.055,2.055,0,0,0-.343-.136,3.443,3.443,0,0,1-.364-.142,1.478,1.478,0,0,1-.306-.185.8.8,0,0,1-.209-.246.678.678,0,0,1-.076-.328A.67.67,0,0,1,3.522-2.5.893.893,0,0,1,3.9-2.783a1.415,1.415,0,0,1,.548-.1A1.285,1.285,0,0,1,5-2.771a.867.867,0,0,1,.366.31A.817.817,0,0,1,5.495-2H4.884a.417.417,0,0,0-.049-.2.335.335,0,0,0-.147-.139.556.556,0,0,0-.251-.05.607.607,0,0,0-.244.043.331.331,0,0,0-.146.113A.275.275,0,0,0,4-2.082a.226.226,0,0,0,.064.16.613.613,0,0,0,.188.126,2.382,2.382,0,0,0,.3.112,2.308,2.308,0,0,1,.521.221.918.918,0,0,1,.317.3.765.765,0,0,1,.106.409.713.713,0,0,1-.128.428.8.8,0,0,1-.36.271A1.457,1.457,0,0,1,4.46.039a1.607,1.607,0,0,1-.421-.056,1.191,1.191,0,0,1-.373-.172A.874.874,0,0,1,3.4-.482.849.849,0,0,1,3.3-.9h.615a.533.533,0,0,0,.038.214.354.354,0,0,0,.109.142.455.455,0,0,0,.172.079.958.958,0,0,0,.226.024A.609.609,0,0,0,4.7-.485a.3.3,0,0,0,.138-.109A.279.279,0,0,0,4.882-.75Z" transform="translate(881.501 1494)" fill="#ff0054"/>
    <g id="Group_8377" data-name="Group 8377" transform="translate(272 464.532)">
      <g id="חדשות" transform="translate(595.001 1023)">
        <path id="Path_23078" data-name="Path 23078" d="M28.542,77.463a.458.458,0,0,0-.458.458v2.8H.916v-14.8a.153.153,0,0,1,.153-.153h2.8a.458.458,0,1,0,0-.916h-2.8A1.07,1.07,0,0,0,0,65.927V83.869a1.07,1.07,0,0,0,1.068,1.068H27.931A1.07,1.07,0,0,0,29,83.869V77.92a.458.458,0,0,0-.458-.458m-.611,6.559H1.068a.153.153,0,0,1-.153-.153V81.638H28.084v2.231a.153.153,0,0,1-.153.153" transform="translate(0 -61.099)" fill="#ff0054"/>
        <path id="Path_23079" data-name="Path 23079" d="M426.082,65.775h2.8a.153.153,0,0,1,.153.153V80.792a.458.458,0,1,0,.916,0V65.927a1.07,1.07,0,0,0-1.068-1.068h-2.8a.458.458,0,1,0,0,.916" transform="translate(-400.951 -61.099)" fill="#ff0054"/>
        <path id="Path_23080" data-name="Path 23080" d="M174.594,426.421h-1.523v-1.743a.458.458,0,0,0-.916,0v1.743H168.1v-1.743a.458.458,0,1,0-.916,0v1.743h-1.523a.458.458,0,1,0,0,.916h8.93a.458.458,0,0,0,0-.916" transform="translate(-155.629 -399.628)" fill="#ff0054"/>
        <path id="Path_23082" data-name="Path 23082" d="M235.678,364.1a.633.633,0,1,0,.633.633.633.633,0,0,0-.633-.633" transform="translate(-221.419 -342.995)" fill="#ff0054"/>
        <path id="Path_23081" data-name="Path 23081" d="M88.966,18.056a.458.458,0,0,0,.458-.458V.916H106.33V17.6a.458.458,0,0,0,.916,0V.458A.458.458,0,0,0,106.788,0H88.966a.458.458,0,0,0-.458.458V17.6a.458.458,0,0,0,.458.458" transform="translate(-83.377 0)" fill="#ff0054"/>
        <path id="Path_23086" data-name="Path 23086" d="M155.059,159.042H143.567a.458.458,0,0,0,0,.916h11.492a.458.458,0,0,0,0-.916" transform="translate(-134.813 -149.823)" fill="#ff0054"/>
        <path id="Path_23087" data-name="Path 23087" d="M155.059,207.907H143.567a.458.458,0,0,0,0,.916h11.492a.458.458,0,0,0,0-.916" transform="translate(-134.813 -195.855)" fill="#ff0054"/>
        <path id="Path_23088" data-name="Path 23088" d="M155.059,256.771H143.567a.458.458,0,0,0,0,.916h11.492a.458.458,0,0,0,0-.916" transform="translate(-134.813 -241.886)" fill="#ff0054"/>
      </g>
    </g>
  </g>
</svg>
