<svg xmlns="http://www.w3.org/2000/svg" width="23.546" height="27.301" viewBox="0 0 23.546 27.301">
  <g id="Group_8390" data-name="Group 8390" transform="translate(-1101.383 -1405)">
    <path id="Path_23344" data-name="Path 23344" d="M11.772,20.195h0c.113,0,.228,0,.342.008a6.857,6.857,0,0,1,2.266.5,5.885,5.885,0,0,0,4.386,9.206v1.636a3.6,3.6,0,0,0,.935,2.423l2.45,2.71H1.4l2.449-2.709a3.6,3.6,0,0,0,.936-2.424V27.029A6.715,6.715,0,0,1,6.82,22.2a7.024,7.024,0,0,1,4.952-2.01M14.09,39.942a2.651,2.651,0,0,1-2.318,1.545,2.649,2.649,0,0,1-2.316-1.545ZM11.772,19.033a8.075,8.075,0,0,0-8.153,8v4.513a2.445,2.445,0,0,1-.635,1.644L.254,36.207A.978.978,0,0,0,1,37.837H22.546a.978.978,0,0,0,.747-1.63l-2.73-3.021a2.445,2.445,0,0,1-.635-1.644V28.71a4.72,4.72,0,0,1-3.683-8.33,8,8,0,0,0-4.078-1.338q-.2-.009-.4-.009M15.521,38.78h0Zm0,0h-7.5a3.879,3.879,0,0,0,3.747,3.869,3.879,3.879,0,0,0,3.749-3.869" transform="translate(1101.383 1389.652)" fill="#ff0054"/>
    <path id="Path_23345" data-name="Path 23345" d="M53.694,4.4a.581.581,0,0,1-.581-.581V2.064a.9.9,0,1,0-1.8,0V3.818a.581.581,0,0,1-1.162,0V2.064a2.063,2.063,0,1,1,4.126,0V3.82a.581.581,0,0,1-.581.581" transform="translate(1060.943 1405)" fill="#ff0054"/>
    <path id="Path_23346" data-name="Path 23346" d="M88.314,30.475a3.464,3.464,0,1,1-3.464-3.464,3.464,3.464,0,0,1,3.464,3.464" transform="translate(1035.754 1383.219)" fill="#ff0054"/>
    <path id="Path_23347" data-name="Path 23347" d="M92.9,34.814h.122a1.475,1.475,0,0,0,.491-.07.9.9,0,0,0,.308-.174.62.62,0,0,0,.163-.232.792.792,0,0,0,.055-.244h.674v4.165H93.9v-2.87H92.9Z" transform="translate(1026.469 1377.508)" fill="#fff"/>
  </g>
</svg>
