<svg xmlns="http://www.w3.org/2000/svg" xmlns:xlink="http://www.w3.org/1999/xlink" width="825.091" height="721.738" viewBox="0 0 825.091 721.738">
  <defs>
    <linearGradient id="linear-gradient" x1="0.5" x2="0.5" y2="1" gradientUnits="objectBoundingBox">
      <stop offset="0" stop-color="#ff4d2a"/>
      <stop offset="0.553" stop-color="#ff0054"/>
      <stop offset="1" stop-color="#ff0076"/>
    </linearGradient>
  </defs>
  <g id="Group_7596" data-name="Group 7596" transform="translate(-1071.854 -4926.593)">
    <path id="Vector_128" data-name="Vector 128" d="M37.593,528.65c94.667,110.856,176.123,120.095,407.285,53.581s352.246-144.112,279.6-314.091S427.266-23.78,295.174,3.934,8.343,312.142,2.369,373.453C-7.25,472.184,14,492.869,37.593,528.65Z" transform="translate(1896.945 5544.578) rotate(172)" fill="url(#linear-gradient)"/>
    <g id="Group_4931" data-name="Group 4931" transform="translate(1584.594 4817.289)" opacity="0.51">
      <circle id="Ellipse_123" data-name="Ellipse 123" cx="1.453" cy="1.453" r="1.453" transform="translate(215.406 373.594) rotate(90)" fill="#fff"/>
      <circle id="Ellipse_123-2" data-name="Ellipse 123" cx="1.453" cy="1.453" r="1.453" transform="translate(215.406 349.594) rotate(90)" fill="#fff"/>
      <circle id="Ellipse_123-3" data-name="Ellipse 123" cx="1.453" cy="1.453" r="1.453" transform="translate(215.406 325.594) rotate(90)" fill="#fff"/>
      <circle id="Ellipse_123-4" data-name="Ellipse 123" cx="1.453" cy="1.453" r="1.453" transform="translate(215.406 301.594) rotate(90)" fill="#fff"/>
      <circle id="Ellipse_123-5" data-name="Ellipse 123" cx="1.453" cy="1.453" r="1.453" transform="translate(215.406 277.594) rotate(90)" fill="#fff"/>
      <circle id="Ellipse_123-6" data-name="Ellipse 123" cx="1.453" cy="1.453" r="1.453" transform="translate(215.406 254.594) rotate(90)" fill="#fff"/>
      <circle id="Ellipse_123-7" data-name="Ellipse 123" cx="1.453" cy="1.453" r="1.453" transform="translate(215.406 231.594) rotate(90)" fill="#fff"/>
      <circle id="Ellipse_123-8" data-name="Ellipse 123" cx="1.453" cy="1.453" r="1.453" transform="translate(215.406 208.594) rotate(90)" fill="#fff"/>
      <circle id="Ellipse_123-9" data-name="Ellipse 123" cx="1.453" cy="1.453" r="1.453" transform="translate(215.406 184.594) rotate(90)" fill="#fff"/>
      <circle id="Ellipse_123-10" data-name="Ellipse 123" cx="1.453" cy="1.453" r="1.453" transform="translate(215.406 160.594) rotate(90)" fill="#fff"/>
      <circle id="Ellipse_124" data-name="Ellipse 124" cx="1.453" cy="1.453" r="1.453" transform="translate(189.407 373.594) rotate(90)" fill="#fff"/>
      <circle id="Ellipse_124-2" data-name="Ellipse 124" cx="1.453" cy="1.453" r="1.453" transform="translate(189.407 349.594) rotate(90)" fill="#fff"/>
      <circle id="Ellipse_124-3" data-name="Ellipse 124" cx="1.453" cy="1.453" r="1.453" transform="translate(189.407 325.594) rotate(90)" fill="#fff"/>
      <circle id="Ellipse_124-4" data-name="Ellipse 124" cx="1.453" cy="1.453" r="1.453" transform="translate(189.407 301.594) rotate(90)" fill="#fff"/>
      <circle id="Ellipse_124-5" data-name="Ellipse 124" cx="1.453" cy="1.453" r="1.453" transform="translate(189.407 277.594) rotate(90)" fill="#fff"/>
      <circle id="Ellipse_124-6" data-name="Ellipse 124" cx="1.453" cy="1.453" r="1.453" transform="translate(189.407 254.594) rotate(90)" fill="#fff"/>
      <circle id="Ellipse_124-7" data-name="Ellipse 124" cx="1.453" cy="1.453" r="1.453" transform="translate(189.407 231.594) rotate(90)" fill="#fff"/>
      <circle id="Ellipse_124-8" data-name="Ellipse 124" cx="1.453" cy="1.453" r="1.453" transform="translate(189.407 208.594) rotate(90)" fill="#fff"/>
      <circle id="Ellipse_124-9" data-name="Ellipse 124" cx="1.453" cy="1.453" r="1.453" transform="translate(189.407 184.594) rotate(90)" fill="#fff"/>
      <circle id="Ellipse_124-10" data-name="Ellipse 124" cx="1.453" cy="1.453" r="1.453" transform="translate(189.407 160.594) rotate(90)" fill="#fff"/>
      <circle id="Ellipse_125" data-name="Ellipse 125" cx="1.453" cy="1.453" r="1.453" transform="translate(163.406 373.594) rotate(90)" fill="#fff"/>
      <circle id="Ellipse_125-2" data-name="Ellipse 125" cx="1.453" cy="1.453" r="1.453" transform="translate(163.406 349.594) rotate(90)" fill="#fff"/>
      <circle id="Ellipse_125-3" data-name="Ellipse 125" cx="1.453" cy="1.453" r="1.453" transform="translate(163.406 325.594) rotate(90)" fill="#fff"/>
      <circle id="Ellipse_125-4" data-name="Ellipse 125" cx="1.453" cy="1.453" r="1.453" transform="translate(163.406 301.594) rotate(90)" fill="#fff"/>
      <circle id="Ellipse_125-5" data-name="Ellipse 125" cx="1.453" cy="1.453" r="1.453" transform="translate(163.406 277.594) rotate(90)" fill="#fff"/>
      <circle id="Ellipse_125-6" data-name="Ellipse 125" cx="1.453" cy="1.453" r="1.453" transform="translate(163.406 254.594) rotate(90)" fill="#fff"/>
      <circle id="Ellipse_125-7" data-name="Ellipse 125" cx="1.453" cy="1.453" r="1.453" transform="translate(163.406 231.594) rotate(90)" fill="#fff"/>
      <circle id="Ellipse_125-8" data-name="Ellipse 125" cx="1.453" cy="1.453" r="1.453" transform="translate(163.406 208.594) rotate(90)" fill="#fff"/>
      <circle id="Ellipse_125-9" data-name="Ellipse 125" cx="1.453" cy="1.453" r="1.453" transform="translate(163.406 184.594) rotate(90)" fill="#fff"/>
      <circle id="Ellipse_125-10" data-name="Ellipse 125" cx="1.453" cy="1.453" r="1.453" transform="translate(163.406 160.594) rotate(90)" fill="#fff"/>
      <circle id="Ellipse_126" data-name="Ellipse 126" cx="1.453" cy="1.453" r="1.453" transform="translate(137.406 373.594) rotate(90)" fill="#fff"/>
      <circle id="Ellipse_126-2" data-name="Ellipse 126" cx="1.453" cy="1.453" r="1.453" transform="translate(137.406 349.594) rotate(90)" fill="#fff"/>
      <circle id="Ellipse_126-3" data-name="Ellipse 126" cx="1.453" cy="1.453" r="1.453" transform="translate(137.406 325.594) rotate(90)" fill="#fff"/>
      <circle id="Ellipse_126-4" data-name="Ellipse 126" cx="1.453" cy="1.453" r="1.453" transform="translate(137.406 301.594) rotate(90)" fill="#fff"/>
      <circle id="Ellipse_126-5" data-name="Ellipse 126" cx="1.453" cy="1.453" r="1.453" transform="translate(137.406 277.594) rotate(90)" fill="#fff"/>
      <circle id="Ellipse_126-6" data-name="Ellipse 126" cx="1.453" cy="1.453" r="1.453" transform="translate(137.406 254.594) rotate(90)" fill="#fff"/>
      <circle id="Ellipse_126-7" data-name="Ellipse 126" cx="1.453" cy="1.453" r="1.453" transform="translate(137.406 231.594) rotate(90)" fill="#fff"/>
      <circle id="Ellipse_126-8" data-name="Ellipse 126" cx="1.453" cy="1.453" r="1.453" transform="translate(137.406 208.594) rotate(90)" fill="#fff"/>
      <circle id="Ellipse_126-9" data-name="Ellipse 126" cx="1.453" cy="1.453" r="1.453" transform="translate(137.406 184.594) rotate(90)" fill="#fff"/>
      <circle id="Ellipse_126-10" data-name="Ellipse 126" cx="1.453" cy="1.453" r="1.453" transform="translate(137.406 160.594) rotate(90)" fill="#fff"/>
      <circle id="Ellipse_127" data-name="Ellipse 127" cx="1.453" cy="1.453" r="1.453" transform="translate(111.406 373.594) rotate(90)" fill="#fff"/>
      <circle id="Ellipse_127-2" data-name="Ellipse 127" cx="1.453" cy="1.453" r="1.453" transform="translate(111.406 349.594) rotate(90)" fill="#fff"/>
      <circle id="Ellipse_127-3" data-name="Ellipse 127" cx="1.453" cy="1.453" r="1.453" transform="translate(111.406 325.594) rotate(90)" fill="#fff"/>
      <circle id="Ellipse_127-4" data-name="Ellipse 127" cx="1.453" cy="1.453" r="1.453" transform="translate(111.406 301.594) rotate(90)" fill="#fff"/>
      <circle id="Ellipse_127-5" data-name="Ellipse 127" cx="1.453" cy="1.453" r="1.453" transform="translate(111.406 277.594) rotate(90)" fill="#fff"/>
      <circle id="Ellipse_127-6" data-name="Ellipse 127" cx="1.453" cy="1.453" r="1.453" transform="translate(111.406 254.594) rotate(90)" fill="#fff"/>
      <circle id="Ellipse_127-7" data-name="Ellipse 127" cx="1.453" cy="1.453" r="1.453" transform="translate(111.406 231.594) rotate(90)" fill="#fff"/>
      <circle id="Ellipse_127-8" data-name="Ellipse 127" cx="1.453" cy="1.453" r="1.453" transform="translate(111.406 208.594) rotate(90)" fill="#fff"/>
      <circle id="Ellipse_127-9" data-name="Ellipse 127" cx="1.453" cy="1.453" r="1.453" transform="translate(111.406 184.594) rotate(90)" fill="#fff"/>
      <circle id="Ellipse_127-10" data-name="Ellipse 127" cx="1.453" cy="1.453" r="1.453" transform="translate(111.406 160.594) rotate(90)" fill="#fff"/>
      <circle id="Ellipse_127-11" data-name="Ellipse 127" cx="1.453" cy="1.453" r="1.453" transform="translate(84.406 373.594) rotate(90)" fill="#fff"/>
      <circle id="Ellipse_127-12" data-name="Ellipse 127" cx="1.453" cy="1.453" r="1.453" transform="translate(84.406 349.594) rotate(90)" fill="#fff"/>
      <circle id="Ellipse_127-13" data-name="Ellipse 127" cx="1.453" cy="1.453" r="1.453" transform="translate(84.406 325.594) rotate(90)" fill="#fff"/>
      <circle id="Ellipse_127-14" data-name="Ellipse 127" cx="1.453" cy="1.453" r="1.453" transform="translate(84.406 301.594) rotate(90)" fill="#fff"/>
      <circle id="Ellipse_127-15" data-name="Ellipse 127" cx="1.453" cy="1.453" r="1.453" transform="translate(84.406 277.594) rotate(90)" fill="#fff"/>
      <circle id="Ellipse_127-16" data-name="Ellipse 127" cx="1.453" cy="1.453" r="1.453" transform="translate(84.406 254.594) rotate(90)" fill="#fff"/>
      <circle id="Ellipse_127-17" data-name="Ellipse 127" cx="1.453" cy="1.453" r="1.453" transform="translate(84.406 231.594) rotate(90)" fill="#fff"/>
      <circle id="Ellipse_127-18" data-name="Ellipse 127" cx="1.453" cy="1.453" r="1.453" transform="translate(84.406 208.594) rotate(90)" fill="#fff"/>
      <circle id="Ellipse_127-19" data-name="Ellipse 127" cx="1.453" cy="1.453" r="1.453" transform="translate(84.406 184.594) rotate(90)" fill="#fff"/>
      <circle id="Ellipse_127-20" data-name="Ellipse 127" cx="1.453" cy="1.453" r="1.453" transform="translate(84.406 160.594) rotate(90)" fill="#fff"/>
      <circle id="Ellipse_127-21" data-name="Ellipse 127" cx="1.453" cy="1.453" r="1.453" transform="translate(58.406 373.594) rotate(90)" fill="#fff"/>
      <circle id="Ellipse_127-22" data-name="Ellipse 127" cx="1.453" cy="1.453" r="1.453" transform="translate(58.406 349.594) rotate(90)" fill="#fff"/>
      <circle id="Ellipse_127-23" data-name="Ellipse 127" cx="1.453" cy="1.453" r="1.453" transform="translate(58.406 325.594) rotate(90)" fill="#fff"/>
      <circle id="Ellipse_127-24" data-name="Ellipse 127" cx="1.453" cy="1.453" r="1.453" transform="translate(58.406 301.594) rotate(90)" fill="#fff"/>
      <circle id="Ellipse_127-25" data-name="Ellipse 127" cx="1.453" cy="1.453" r="1.453" transform="translate(58.406 277.594) rotate(90)" fill="#fff"/>
      <circle id="Ellipse_127-26" data-name="Ellipse 127" cx="1.453" cy="1.453" r="1.453" transform="translate(58.406 254.594) rotate(90)" fill="#fff"/>
      <circle id="Ellipse_127-27" data-name="Ellipse 127" cx="1.453" cy="1.453" r="1.453" transform="translate(58.406 231.594) rotate(90)" fill="#fff"/>
      <circle id="Ellipse_127-28" data-name="Ellipse 127" cx="1.453" cy="1.453" r="1.453" transform="translate(58.406 208.594) rotate(90)" fill="#fff"/>
      <circle id="Ellipse_127-29" data-name="Ellipse 127" cx="1.453" cy="1.453" r="1.453" transform="translate(58.406 184.594) rotate(90)" fill="#fff"/>
      <circle id="Ellipse_127-30" data-name="Ellipse 127" cx="1.453" cy="1.453" r="1.453" transform="translate(58.406 160.594) rotate(90)" fill="#fff"/>
    </g>
  </g>
</svg>
