<svg xmlns="http://www.w3.org/2000/svg" xmlns:xlink="http://www.w3.org/1999/xlink" width="44.885" height="44.898" viewBox="0 0 44.885 44.898">
  <defs>
    <linearGradient id="linear-gradient" x1="0.5" x2="0.5" y2="1" gradientUnits="objectBoundingBox">
      <stop offset="0" stop-color="#ff4d2a"/>
      <stop offset="0.553" stop-color="#ff0054"/>
      <stop offset="1" stop-color="#ff0076"/>
    </linearGradient>
  </defs>
  <g id="Group_5070" data-name="Group 5070" transform="translate(432.502 -356.876)">
    <path id="Path_18770" data-name="Path 18770" d="M-415.58,401.774l-.38-.1a22.978,22.978,0,0,1-5.317-2.151l-.341-.19.2-5.05a18.651,18.651,0,0,1-3.375-3.3l-5.032.31-.2-.334a20.845,20.845,0,0,1-1.3-2.576,20.558,20.558,0,0,1-.961-2.7l-.1-.375,3.712-3.428a18.633,18.633,0,0,1-.043-4.713l-3.785-3.347.1-.378a23.317,23.317,0,0,1,2.126-5.316l.19-.347,5.062.214a18.011,18.011,0,0,1,3.3-3.375l-.311-5.055.334-.2a20.368,20.368,0,0,1,2.566-1.287,22.911,22.911,0,0,1,2.7-.961l.375-.105,3.429,3.712a18.144,18.144,0,0,1,4.714-.045l3.36-3.8.38.1a23.939,23.939,0,0,1,5.312,2.124l.347.19-.214,5.066a18.685,18.685,0,0,1,3.375,3.3l5.055-.31.2.334a23.125,23.125,0,0,1,2.247,5.264l.109.378-3.716,3.432a18.845,18.845,0,0,1,.046,4.734l3.8,3.336-.1.382a23.775,23.775,0,0,1-2.137,5.324l-.19.346-5.061-.214a18.066,18.066,0,0,1-3.3,3.375l.322,5.05-.344.2a27.081,27.081,0,0,1-2.558,1.289,26.168,26.168,0,0,1-2.7.962l-.38.113-3.444-3.729a18.586,18.586,0,0,1-4.7.055Zm-4.735-3.177a21.713,21.713,0,0,0,4.3,1.741l3.284-3.711.336.044a17.307,17.307,0,0,0,5.01-.06l.338-.054,3.364,3.643c.764-.239,1.5-.506,2.188-.8s1.395-.652,2.083-1.031l-.315-4.934.273-.207a16.8,16.8,0,0,0,3.512-3.591l.2-.28,4.951.209a22.483,22.483,0,0,0,1.732-4.314l-3.715-3.262.047-.339a17.52,17.52,0,0,0-.049-5.046l-.051-.334,3.631-3.354a21.954,21.954,0,0,0-.8-2.181c-.364-.831-.686-1.489-1.016-2.077l-4.951.3-.206-.271a17.4,17.4,0,0,0-3.6-3.516l-.274-.2.209-4.946a22.612,22.612,0,0,0-4.3-1.722l-3.285,3.714-.338-.047a16.875,16.875,0,0,0-5.017.048l-.338.054-3.356-3.634a22.893,22.893,0,0,0-2.184.8,19.575,19.575,0,0,0-2.073,1.014l.3,4.952-.272.206a16.8,16.8,0,0,0-3.512,3.591l-.2.28-4.951-.209a22.043,22.043,0,0,0-1.724,4.3l3.7,3.274-.044.336a17.348,17.348,0,0,0,.047,5.021l.055.338-3.636,3.357a18.912,18.912,0,0,0,.8,2.174,19.618,19.618,0,0,0,1.029,2.094l4.928-.3.206.271a17.345,17.345,0,0,0,3.6,3.516l.274.2Zm10.241-5.966a13.329,13.329,0,0,1-13.354-13.3,13.329,13.329,0,0,1,13.3-13.354,13.329,13.329,0,0,1,13.354,13.3,13.328,13.328,0,0,1-8.073,12.274l-.251-.585.251.585a13.265,13.265,0,0,1-5.23,1.08Zm-.035-25.341a12.027,12.027,0,0,0-11.98,12.074,12.026,12.026,0,0,0,12.074,11.98,12.026,12.026,0,0,0,11.98-12.073A12.019,12.019,0,0,0-399,374.6a12.093,12.093,0,0,0-11.112-7.314Z" fill="#c9c9d3"/>
    <g id="Group_5177" data-name="Group 5177">
      <path id="Path_18771" data-name="Path 18771" d="M-405.546,370.938l-4.381-2.53-4.381,2.53V376l4.381,2.528,4.381-2.528Zm-4.992,5.764-2.5-1.44v-2.87l2.5,1.443Zm.637-3.236-2.485-2.169,2.458-1.42,2.485,1.435-2.458,1.419Zm5.567,3.964-2.446,1.411v-2.837l2.446-1.412Z" fill="url(#linear-gradient)"/>
      <path id="Path_18772" data-name="Path 18772" d="M-400.546,379.938l-4.381-2.53-4.381,2.53V385l4.381,2.528,4.381-2.528Zm-4.992,5.764-2.5-1.44v-2.87l2.5,1.443Zm.637-3.236-2.485-2.169,2.458-1.42,2.485,1.435-2.458,1.419Zm5.567,3.964-2.446,1.411v-2.837l2.446-1.412Z" fill="url(#linear-gradient)"/>
      <path id="Path_18773" data-name="Path 18773" d="M-410.546,379.938l-4.381-2.53-4.381,2.53V385l4.381,2.528,4.381-2.528Zm-4.992,5.764-2.5-1.44v-2.87l2.5,1.443Zm.637-3.236-2.485-2.169,2.458-1.42,2.485,1.435-2.458,1.419Zm5.567,3.964-2.446,1.411v-2.837l2.446-1.412Z" fill="url(#linear-gradient)"/>
    </g>
    <path id="Path_18774" data-name="Path 18774" d="M-402.175,377.24a9.034,9.034,0,0,0-.272-.955l1.259-.437a10.189,10.189,0,0,1,.314,1.1Zm-.649-1.873a9.083,9.083,0,0,0-.477-.871l1.134-.7a10.207,10.207,0,0,1,.547,1Zm-1.047-1.684a9.109,9.109,0,0,0-.656-.746l.951-.936a10.4,10.4,0,0,1,.754.856Z" fill="#c9c9d3"/>
    <path id="Path_18775" data-name="Path 18775" d="M-409.59,389.528c-.329,0-.66-.016-.983-.046l.126-1.329c.282.027.57.041.858.041h.145v1.334Zm1.293-.08-.165-1.324a9,9,0,0,0,.976-.178l.313,1.3A10.463,10.463,0,0,1-408.3,389.448Zm-3.4-.136a10.245,10.245,0,0,1-1.1-.3l.416-1.267a9.094,9.094,0,0,0,.959.256Z" fill="#c9c9d3"/>
    <path id="Path_18776" data-name="Path 18776" d="M-418.535,376.706l-1.28-.375a10.23,10.23,0,0,1,.38-1.075l1.232.513A8.916,8.916,0,0,0-418.535,376.706Zm.765-1.829-1.166-.649a10.066,10.066,0,0,1,.608-.964l1.088.773a8.915,8.915,0,0,0-.53.84Zm1.149-1.618-1-.888a10.237,10.237,0,0,1,.8-.81l.892.992a8.975,8.975,0,0,0-.7.707Z" fill="#c9c9d3"/>
    <path id="Path_18777" data-name="Path 18777" d="M-392.294,387.644a.651.651,0,0,1-.25-.052l-3.08-1.314a.637.637,0,0,1-.336-.835.637.637,0,0,1,.836-.336l3.08,1.314a.637.637,0,0,1,.335.836A.637.637,0,0,1-392.294,387.644Z" fill="url(#linear-gradient)"/>
    <path id="Path_18778" data-name="Path 18778" d="M-395.792,373.838a.637.637,0,0,1-.637-.637.637.637,0,0,1,.387-.585l3.08-1.314a.636.636,0,0,1,.835.335.636.636,0,0,1-.335.835l-3.081,1.314A.624.624,0,0,1-395.792,373.838Z" fill="url(#linear-gradient)"/>
    <path id="Path_18779" data-name="Path 18779" d="M-403.944,365.207a.637.637,0,0,1-.636-.638.636.636,0,0,1,.046-.236l1.249-3.107a.637.637,0,0,1,.828-.353.636.636,0,0,1,.353.828h0l-1.249,3.107A.637.637,0,0,1-403.944,365.207Z" fill="url(#linear-gradient)"/>
    <path id="Path_18780" data-name="Path 18780" d="M-416.581,365.207a.637.637,0,0,1-.591-.4l-1.248-3.107a.636.636,0,0,1,.353-.828.637.637,0,0,1,.828.353l1.249,3.107a.638.638,0,0,1-.355.829.635.635,0,0,1-.236.045Z" fill="url(#linear-gradient)"/>
    <path id="Path_18781" data-name="Path 18781" d="M-424.732,373.838a.633.633,0,0,1-.25-.052l-3.08-1.313a.636.636,0,0,1-.34-.833.635.635,0,0,1,.833-.34l.006,0,3.081,1.314a.637.637,0,0,1,.335.836.637.637,0,0,1-.586.387Z" fill="url(#linear-gradient)"/>
    <path id="Path_18782" data-name="Path 18782" d="M-427.395,387.644a.637.637,0,0,1-.636-.637.638.638,0,0,1,.386-.586l3.081-1.314a.636.636,0,0,1,.835.336.637.637,0,0,1-.336.835l-3.08,1.314A.651.651,0,0,1-427.395,387.644Z" fill="url(#linear-gradient)"/>
    <path id="Path_18783" data-name="Path 18783" d="M-417.412,398.067a.636.636,0,0,1-.636-.638.635.635,0,0,1,.045-.236l1.249-3.107a.636.636,0,0,1,.828-.354.637.637,0,0,1,.353.828l-1.248,3.108A.637.637,0,0,1-417.412,398.067Z" fill="url(#linear-gradient)"/>
    <path id="Path_18784" data-name="Path 18784" d="M-402.277,398.067a.637.637,0,0,1-.591-.4l-1.248-3.108a.637.637,0,0,1,.353-.828.636.636,0,0,1,.828.354l1.249,3.107a.637.637,0,0,1-.355.828.616.616,0,0,1-.236.046Z" fill="url(#linear-gradient)"/>
  </g>
</svg>
