<svg xmlns="http://www.w3.org/2000/svg" width="45.515" height="45.51" viewBox="0 0 45.515 45.51">
  <g id="Group_5178" data-name="Group 5178" transform="translate(-1683.535 -482.547)">
    <g id="Group_5188" data-name="Group 5188" transform="translate(1701.561 503.571)">
      <path id="Path_18794" data-name="Path 18794" d="M1777.078,594.895q-.015-.76-.015-1.534c0-.588,0-1.165.02-1.732l1.243.032c-.015.557-.02,1.123-.02,1.7q0,.762.015,1.509Z" transform="translate(-1777.063 -591.629)" fill="#fff"/>
    </g>
    <g id="Group_5189" data-name="Group 5189" transform="translate(1709.766 503.517)">
      <path id="Path_18795" data-name="Path 18795" d="M1820.881,594.609l-1.243-.026q.015-.717.015-1.449c0-.6-.01-1.186-.02-1.765l1.243-.021c.01.585.02,1.18.02,1.786Q1820.9,593.879,1820.881,594.609Z" transform="translate(-1819.633 -591.349)" fill="#fff"/>
    </g>
    <g id="Group_5190" data-name="Group 5190" transform="translate(1688.985 487.931)">
      <path id="Path_18796" data-name="Path 18796" d="M1792.405,618.6l-.021,1.243c.585.01,1.181.02,1.781.02s1.219-.01,1.815-.025l-.031-1.243C1794.784,618.628,1793.569,618.623,1792.405,618.6Z" transform="translate(-1776.855 -597.76)" fill="#fff"/>
      <path id="Path_18797" data-name="Path 18797" d="M1792.384,576.063l.021,1.243c1.164-.021,2.378-.025,3.544,0l.031-1.243C1794.8,576.038,1793.566,576.043,1792.384,576.063Z" transform="translate(-1776.855 -563.41)" fill="#fff"/>
      <path id="Path_18798" data-name="Path 18798" d="M1746.428,527.733c0-.005,0-.01,0-.015,0-.021,0-.043,0-.064a17.326,17.326,0,0,0-16.012-17.06,7.266,7.266,0,0,0-2.563,0,17.306,17.306,0,0,0,1.237,34.565c.013,0,.023,0,.036,0s.029,0,.043,0a17.327,17.327,0,0,0,17.262-17.2c0-.018,0-.042,0-.057Zm-2.283-5.562a15.429,15.429,0,0,0-5.549-3.859,15.508,15.508,0,0,0-3.782-5.482A16.147,16.147,0,0,1,1744.144,522.172Zm.712,3.579a16.314,16.314,0,0,0-4.662-1.613,23.694,23.694,0,0,0-.977-4.189C1742.053,521.391,1744.1,523.425,1744.856,525.751Zm-9.55,6.544c1.259-.122,2.456-.284,3.577-.479a21.782,21.782,0,0,1-1.225,4.5,21.82,21.82,0,0,1-4.564,1.235c.208-1.185.378-2.474.5-3.855l-1.238-.113c-.136,1.5-.326,2.883-.561,4.138a25.177,25.177,0,0,1-5.357,0c-.233-1.248-.421-2.613-.556-4.078l-1.238.114c.124,1.349.293,2.619.5,3.794a21.808,21.808,0,0,1-4.556-1.234,21.816,21.816,0,0,1-1.225-4.5c1.116.2,2.318.359,3.593.482l.119-1.237c-1.394-.134-2.693-.318-3.885-.541a25.2,25.2,0,0,1-.016-5.338c1.181-.221,2.486-.406,3.9-.546l-.123-1.237c-1.294.128-2.5.293-3.612.488a21.854,21.854,0,0,1,1.246-4.639,21.831,21.831,0,0,1,4.578-1.237c-.209,1.173-.379,2.425-.5,3.741l1.238.115c.133-1.429.323-2.777.559-4.026a25.191,25.191,0,0,1,5.31,0c.235,1.245.423,2.574.555,3.968l1.238-.117c-.121-1.283-.29-2.516-.5-3.682a21.839,21.839,0,0,1,4.588,1.239,21.826,21.826,0,0,1,1.246,4.639c-1.118-.2-2.321-.36-3.6-.483l-.119,1.237c1.394.135,2.694.318,3.885.541a25.192,25.192,0,0,1-.016,5.337c-1.2.222-2.494.4-3.87.537Zm1.653-14.6a23.633,23.633,0,0,0-4.14-.97,15.964,15.964,0,0,0-1.633-4.659C1733.5,512.831,1735.523,514.867,1736.959,517.691Zm-7.839-5.905c.639,0,1.627,1.507,2.39,4.783-.78-.071-1.576-.11-2.386-.11s-1.612.039-2.4.111C1727.492,513.292,1728.481,511.786,1729.12,511.786Zm-2.069.281a15.984,15.984,0,0,0-1.631,4.656,23.647,23.647,0,0,0-4.13.968C1722.724,514.872,1724.743,512.838,1727.051,512.066Zm-3.6.755a15.5,15.5,0,0,0-3.792,5.491,15.408,15.408,0,0,0-5.571,3.884A16.146,16.146,0,0,1,1723.447,512.822Zm-4.414,7.127a23.685,23.685,0,0,0-.978,4.19,16.077,16.077,0,0,0-4.655,1.591C1714.167,523.413,1716.2,521.386,1719.033,519.948Zm-5.96,8.021c0-.009,0-.018,0-.028v-.016l0-.007c0-.046-.005-.091-.005-.136,0-.016,0-.031,0-.046.167-.611,1.533-1.533,4.839-2.292-.068.765-.106,1.545-.106,2.338,0,.841.042,1.668.118,2.477C1714.4,529.456,1713.221,528.481,1713.073,527.969Zm5,3.6a23.628,23.628,0,0,0,.956,4.049,10.846,10.846,0,0,1-5.574-5.624A16.662,16.662,0,0,0,1718.077,531.568Zm-4.081,1.7a15.323,15.323,0,0,0,5.658,3.983,15.248,15.248,0,0,0,4.058,5.724A16.144,16.144,0,0,1,1714,533.27Zm7.294,4.6a23.606,23.606,0,0,0,4.1.964,17.084,17.084,0,0,0,1.55,4.62A10.823,10.823,0,0,1,1721.291,537.875Zm8.112,5.955h-.57c-.617-.363-1.452-1.807-2.133-4.835.793.073,1.6.114,2.425.114s1.627-.04,2.417-.113C1730.859,542.031,1730.021,543.473,1729.4,543.83Zm1.9-.367a17.05,17.05,0,0,0,1.551-4.622,23.635,23.635,0,0,0,4.111-.965A10.817,10.817,0,0,1,1731.3,543.462Zm3.248-.492a15.255,15.255,0,0,0,4.05-5.717,15.335,15.335,0,0,0,5.638-3.961A16.146,16.146,0,0,1,1734.545,542.97Zm4.672-7.353a23.627,23.627,0,0,0,.956-4.049,16.611,16.611,0,0,0,4.621-1.582A10.84,10.84,0,0,1,1739.217,535.617Zm5.962-7.7c-.082.506-1.205,1.51-4.848,2.344.076-.809.118-1.636.118-2.477,0-.794-.038-1.574-.106-2.34,3.68.842,4.781,1.851,4.84,2.321,0,.015,0,.03,0,.044C1745.183,527.845,1745.18,527.88,1745.179,527.916Z" transform="translate(-1711.81 -510.48)" fill="#fff"/>
    </g>
    <g id="Group_5191" data-name="Group 5191" transform="translate(1683.535 482.547)">
      <path id="Path_18799" data-name="Path 18799" d="M1688.765,519.809a22.758,22.758,0,0,1,28.969-34.182l-.626,1.074a21.511,21.511,0,0,0-27.385,32.315Z" transform="translate(-1683.535 -482.547)" fill="#fff"/>
    </g>
    <path id="Path_18800" data-name="Path 18800" d="M1851.979,494.923a1.212,1.212,0,1,0-1.212,1.212A1.212,1.212,0,0,0,1851.979,494.923Z" transform="translate(-134.022 -9.012)" fill="#fff"/>
    <g id="Group_5192" data-name="Group 5192" transform="translate(1687.665 518.283)">
      <path id="Path_18801" data-name="Path 18801" d="M1708.032,674.1a3.067,3.067,0,1,1,3.067-3.067A3.07,3.07,0,0,1,1708.032,674.1Zm0-4.89a1.824,1.824,0,1,0,1.824,1.823A1.826,1.826,0,0,0,1708.032,669.21Z" transform="translate(-1704.966 -667.967)" fill="#fff"/>
    </g>
    <g id="Group_5196" data-name="Group 5196" transform="translate(1694.625 490.73)">
      <g id="Group_5193" data-name="Group 5193" transform="translate(0 33.044)">
        <path id="Path_18802" data-name="Path 18802" d="M1741.738,697.908q-.335-.186-.664-.382l.638-1.067q.31.186.628.362Z" transform="translate(-1741.074 -696.459)" fill="#fff"/>
      </g>
      <g id="Group_5194" data-name="Group 5194" transform="translate(2.016 1.85)">
        <path id="Path_18803" data-name="Path 18803" d="M1761.186,570.083q-.431,0-.858-.016l.046-1.242c.476.018.959.019,1.436.006l.035,1.243Q1761.517,570.083,1761.186,570.083Zm2.174-.1-.117-1.238c.475-.045.954-.106,1.423-.183l.2,1.227C1764.369,569.868,1763.862,569.933,1763.36,569.981Zm-4.545-.02c-.5-.052-1.007-.121-1.5-.207l.21-1.225c.47.081.948.147,1.422.2Zm7.54-.467-.281-1.211c.466-.108.932-.233,1.385-.371l.362,1.189C1767.34,569.247,1766.847,569.379,1766.354,569.494Zm-10.53-.046c-.49-.118-.981-.255-1.463-.406l.372-1.186c.455.143.92.272,1.383.383Zm13.436-.839-.441-1.163c.447-.169.893-.356,1.325-.554l.519,1.13C1770.2,568.232,1769.733,568.43,1769.26,568.609Zm-16.331-.071c-.469-.183-.938-.384-1.4-.6l.528-1.126c.432.2.875.393,1.319.566Zm19.093-1.2-.593-1.093c.418-.227.835-.471,1.239-.726l.664,1.051C1772.9,566.845,1772.463,567.1,1772.021,567.343Zm2.566-1.622-.733-1c.384-.28.765-.578,1.131-.884l.8.954C1775.4,565.11,1774.994,565.424,1774.587,565.721Zm2.327-1.948-.859-.9c.344-.329.682-.674,1-1.026l.917.839C1777.635,563.06,1777.278,563.425,1776.914,563.773Zm2.048-2.238-.971-.776c.3-.372.586-.758.859-1.149l1.02.711C1779.582,560.734,1779.277,561.143,1778.963,561.535Zm1.733-2.488-1.065-.641c.246-.408.48-.829.7-1.252l1.105.569C1781.2,558.169,1780.956,558.615,1780.7,559.047Zm1.387-2.7-1.141-.493c.189-.438.365-.886.524-1.333l1.172.416C1782.469,555.414,1782.282,555.888,1782.082,556.351Zm1.014-2.857-1.2-.336c.129-.459.243-.927.341-1.393l1.217.255C1783.354,552.512,1783.233,553.008,1783.1,553.494Zm.623-2.97-1.231-.173c.066-.47.117-.95.152-1.427l1.24.091C1783.844,549.519,1783.789,550.027,1783.719,550.524Zm.222-3.025-1.243-.008v-.164c0-.423-.013-.851-.037-1.273l1.241-.073c.026.446.039.9.039,1.346Zm-1.411-2.875c-.059-.474-.135-.951-.226-1.418l1.22-.237c.1.494.176,1,.239,1.5Zm-.547-2.817c-.121-.46-.26-.923-.414-1.374l1.178-.4c.162.478.309.968.438,1.455Zm-.919-2.718c-.182-.439-.382-.879-.594-1.307l1.114-.552c.224.452.436.917.629,1.382Zm-1.275-2.57c-.24-.412-.5-.821-.763-1.215l1.03-.7c.282.418.554.85.807,1.286Z" transform="translate(-1751.533 -534.607)" fill="#fff"/>
      </g>
      <g id="Group_5195" data-name="Group 5195" transform="translate(28.195 0)">
        <path id="Path_18804" data-name="Path 18804" d="M1887.82,526.366q-.223-.286-.455-.564l.955-.8q.245.294.481.6Z" transform="translate(-1887.365 -525.006)" fill="#fff"/>
      </g>
    </g>
    <path id="Path_18805" data-name="Path 18805" d="M1741.488,696.48a1.212,1.212,0,1,0-1.212,1.212A1.212,1.212,0,0,0,1741.488,696.48Z" transform="translate(-44.827 -171.723)" fill="#fff"/>
    <g id="Group_5197" data-name="Group 5197" transform="translate(1699.572 506.202)">
      <path id="Path_18806" data-name="Path 18806" d="M1772.316,610.853h-5.572v-5.572h5.572Zm-4.329-1.243h3.085v-3.086h-3.085Z" transform="translate(-1766.744 -605.281)" fill="#fff"/>
    </g>
    <g id="Group_5198" data-name="Group 5198" transform="translate(1707.472 506.142)">
      <path id="Path_18807" data-name="Path 18807" d="M1813.306,610.542h-5.572V604.97h5.572Zm-4.329-1.243h3.086v-3.086h-3.086Z" transform="translate(-1807.734 -604.97)" fill="#fff"/>
    </g>
    <g id="Group_5199" data-name="Group 5199" transform="translate(1699.572 498.638)">
      <path id="Path_18808" data-name="Path 18808" d="M1772.316,571.607h-5.572v-5.572h5.572Zm-4.329-1.243h3.085v-3.086h-3.085Z" transform="translate(-1766.744 -566.035)" fill="#fff"/>
    </g>
    <g id="Group_5200" data-name="Group 5200" transform="translate(1707.472 498.578)">
      <path id="Path_18809" data-name="Path 18809" d="M1813.306,571.3h-5.572v-5.572h5.572Zm-4.329-1.243h3.086v-3.085h-3.086Z" transform="translate(-1807.734 -565.724)" fill="#fff"/>
    </g>
    <g id="Group_5201" data-name="Group 5201" transform="translate(1718.678 486.601)">
      <path id="Path_18810" data-name="Path 18810" d="M1868.944,509.715a3.067,3.067,0,1,1,3.066-3.067A3.07,3.07,0,0,1,1868.944,509.715Zm0-4.89a1.824,1.824,0,1,0,1.823,1.824A1.826,1.826,0,0,0,1868.944,504.825Z" transform="translate(-1865.877 -503.582)" fill="#fff"/>
    </g>
  </g>
</svg>
