<?xml version="1.0" encoding="utf-8"?>
<!-- Generator: Adobe Illustrator 24.1.2, SVG Export Plug-In . SVG Version: 6.00 Build 0)  -->
<svg version="1.1" id="Layer_1" xmlns="http://www.w3.org/2000/svg" xmlns:xlink="http://www.w3.org/1999/xlink" x="0px" y="0px"
	 viewBox="0 0 45.5 45.5" style="enable-background:new 0 0 45.5 45.5;" xml:space="preserve">
<style type="text/css">
	.st0{fill:#FF0054;}
</style>
<g id="Group_5178" transform="translate(-1683.535 -482.547)">
	<g id="Group_5188" transform="translate(1701.561 503.571)">
		<path id="Path_18794" class="st0" d="M0,3.3c0-0.5,0-1,0-1.5C0,1.1,0,0.6,0,0l1.2,0c0,0.6,0,1.1,0,1.7c0,0.5,0,1,0,1.5L0,3.3z"/>
	</g>
	<g id="Group_5189" transform="translate(1709.766 503.517)">
		<path id="Path_18795" class="st0" d="M1.2,3.3L0,3.2c0-0.5,0-1,0-1.4C0,1.2,0,0.6,0,0l1.2,0c0,0.6,0,1.2,0,1.8
			C1.3,2.3,1.3,2.8,1.2,3.3z"/>
	</g>
	<g id="Group_5190" transform="translate(1688.985 487.931)">
		<path id="Path_18796" class="st0" d="M15.6,20.8l0,1.2c0.6,0,1.2,0,1.8,0s1.2,0,1.8,0l0-1.2C17.9,20.9,16.7,20.9,15.6,20.8z"/>
		<path id="Path_18797" class="st0" d="M15.5,12.7l0,1.2c1.2,0,2.4,0,3.5,0l0-1.2C17.9,12.6,16.7,12.6,15.5,12.7z"/>
		<path id="Path_18798" class="st0" d="M34.6,17.3C34.6,17.2,34.6,17.2,34.6,17.3C34.6,17.2,34.6,17.2,34.6,17.3
			c-0.1-9.1-7.1-16.5-16-17.1C17.8,0,16.9,0,16,0.1c-9.5,0.7-16.7,9-16,18.5c0.7,9,8.2,16,17.2,16c0,0,0,0,0,0s0,0,0,0
			c9.5,0,17.2-7.7,17.3-17.2c0,0,0,0,0-0.1L34.6,17.3z M32.3,11.7c-1.5-1.7-3.4-3-5.5-3.9c-0.8-2.1-2.1-4-3.8-5.5
			C27.3,4,30.7,7.4,32.3,11.7L32.3,11.7z M33,15.3c-1.5-0.8-3-1.3-4.7-1.6c-0.2-1.4-0.5-2.8-1-4.2C30.2,10.9,32.3,12.9,33,15.3
			L33,15.3z M23.5,21.8c1.3-0.1,2.5-0.3,3.6-0.5c-0.2,1.5-0.7,3-1.2,4.5c-1.5,0.6-3,1-4.6,1.2c0.2-1.2,0.4-2.5,0.5-3.9l-1.2-0.1
			c-0.1,1.5-0.3,2.9-0.6,4.1c-1.8,0.2-3.6,0.2-5.4,0c-0.2-1.2-0.4-2.6-0.6-4.1l-1.2,0.1c0.1,1.3,0.3,2.6,0.5,3.8
			c-1.6-0.2-3.1-0.7-4.6-1.2c-0.6-1.5-1-3-1.2-4.5c1.1,0.2,2.3,0.4,3.6,0.5l0.1-1.2c-1.4-0.1-2.7-0.3-3.9-0.5
			c-0.2-1.8-0.2-3.6,0-5.3c1.2-0.2,2.5-0.4,3.9-0.5l-0.1-1.2c-1.3,0.1-2.5,0.3-3.6,0.5c0.2-1.6,0.7-3.1,1.2-4.6c1.5-0.6,3-1,4.6-1.2
			c-0.2,1.2-0.4,2.4-0.5,3.7l1.2,0.1c0.1-1.4,0.3-2.8,0.6-4c1.8-0.2,3.5-0.2,5.3,0c0.2,1.2,0.4,2.6,0.6,4l1.2-0.1
			c-0.1-1.3-0.3-2.5-0.5-3.7c1.6,0.2,3.1,0.7,4.6,1.2c0.6,1.5,1,3.1,1.2,4.6c-1.1-0.2-2.3-0.4-3.6-0.5l-0.1,1.2
			c1.4,0.1,2.7,0.3,3.9,0.5c0.2,1.8,0.2,3.6,0,5.3c-1.2,0.2-2.5,0.4-3.9,0.5L23.5,21.8z M25.1,7.2c-1.3-0.4-2.7-0.8-4.1-1
			c-0.3-1.6-0.9-3.2-1.6-4.7C21.7,2.4,23.7,4.4,25.1,7.2L25.1,7.2z M17.3,1.3c0.6,0,1.6,1.5,2.4,4.8C18.9,6,18.1,6,17.3,6
			s-1.6,0-2.4,0.1C15.7,2.8,16.7,1.3,17.3,1.3L17.3,1.3z M15.2,1.6c-0.8,1.5-1.3,3-1.6,4.7c-1.4,0.2-2.8,0.5-4.1,1
			C10.9,4.4,12.9,2.4,15.2,1.6L15.2,1.6z M11.6,2.3C10,3.9,8.7,5.8,7.8,7.8c-2.1,0.9-4,2.2-5.6,3.9C3.9,7.4,7.3,4,11.6,2.3L11.6,2.3
			z M7.2,9.5c-0.5,1.4-0.8,2.8-1,4.2c-1.6,0.3-3.2,0.8-4.7,1.6C2.4,12.9,4.4,10.9,7.2,9.5L7.2,9.5z M1.3,17.5
			C1.3,17.5,1.3,17.5,1.3,17.5L1.3,17.5L1.3,17.5c0-0.1,0-0.1,0-0.2c0,0,0,0,0,0c0.2-0.6,1.5-1.5,4.8-2.3C6,15.7,6,16.5,6,17.3
			c0,0.8,0,1.7,0.1,2.5C2.6,19,1.4,18,1.3,17.5L1.3,17.5z M6.3,21.1c0.2,1.4,0.5,2.7,1,4C4.7,24,2.7,22,1.7,19.5
			C3.1,20.3,4.7,20.8,6.3,21.1L6.3,21.1z M2.2,22.8c1.6,1.7,3.5,3.1,5.7,4c0.9,2.2,2.3,4.2,4.1,5.7C7.4,30.9,3.8,27.3,2.2,22.8
			L2.2,22.8z M9.5,27.4c1.3,0.4,2.7,0.8,4.1,1c0.3,1.6,0.8,3.2,1.6,4.6C12.6,31.9,10.6,29.9,9.5,27.4L9.5,27.4z M17.6,33.3H17
			c-0.6-0.4-1.5-1.8-2.1-4.8c0.8,0.1,1.6,0.1,2.4,0.1s1.6,0,2.4-0.1C19,31.6,18.2,33,17.6,33.3L17.6,33.3z M19.5,33
			c0.7-1.5,1.3-3,1.6-4.6c1.4-0.2,2.8-0.5,4.1-1C24,29.9,22,31.9,19.5,33L19.5,33z M22.7,32.5c1.8-1.6,3.2-3.5,4.1-5.7
			c2.2-0.9,4.1-2.2,5.6-4C30.8,27.3,27.2,30.9,22.7,32.5L22.7,32.5z M27.4,25.1c0.4-1.3,0.8-2.7,1-4c1.6-0.3,3.2-0.8,4.6-1.6
			C31.9,22,29.9,24,27.4,25.1L27.4,25.1z M33.4,17.4c-0.1,0.5-1.2,1.5-4.8,2.3c0.1-0.8,0.1-1.6,0.1-2.5c0-0.8,0-1.6-0.1-2.3
			c3.7,0.8,4.8,1.9,4.8,2.3c0,0,0,0,0,0C33.4,17.4,33.4,17.4,33.4,17.4L33.4,17.4z"/>
	</g>
	<g id="Group_5191" transform="translate(1683.535 482.547)">
		<path id="Path_18799" class="st0" d="M5.2,37.3c-8-9.7-6.7-24,3-32C15.6-0.9,26-1.7,34.2,3.1l-0.6,1.1c-10.3-6-23.4-2.5-29.4,7.8
			c-4.5,7.8-3.7,17.6,2,24.5L5.2,37.3z"/>
	</g>
	<path id="Path_18800" class="st0" d="M1718,485.9c0-0.7-0.5-1.2-1.2-1.2c-0.7,0-1.2,0.5-1.2,1.2s0.5,1.2,1.2,1.2
		S1718,486.6,1718,485.9L1718,485.9z"/>
	<g id="Group_5192" transform="translate(1687.665 518.283)">
		<path id="Path_18801" class="st0" d="M3.1,6.1C1.4,6.1,0,4.8,0,3.1S1.4,0,3.1,0c1.7,0,3.1,1.4,3.1,3.1C6.1,4.8,4.8,6.1,3.1,6.1z
			 M3.1,1.2c-1,0-1.8,0.8-1.8,1.8c0,1,0.8,1.8,1.8,1.8c1,0,1.8-0.8,1.8-1.8c0,0,0,0,0,0C4.9,2.1,4.1,1.2,3.1,1.2L3.1,1.2z"/>
	</g>
	<g id="Group_5196" transform="translate(1694.625 490.73)">
		<g id="Group_5193" transform="translate(0 33.044)">
			<path id="Path_18802" class="st0" d="M0.7,1.4C0.4,1.3,0.2,1.2,0,1.1L0.6,0c0.2,0.1,0.4,0.2,0.6,0.4L0.7,1.4z"/>
		</g>
		<g id="Group_5194" transform="translate(2.016 1.85)">
			<path id="Path_18803" class="st0" d="M9.7,35.5c-0.3,0-0.6,0-0.9,0l0-1.2c0.5,0,1,0,1.4,0l0,1.2C10.1,35.5,9.9,35.5,9.7,35.5z
				 M11.8,35.4l-0.1-1.2c0.5,0,1-0.1,1.4-0.2l0.2,1.2C12.8,35.3,12.3,35.3,11.8,35.4L11.8,35.4z M7.3,35.4c-0.5-0.1-1-0.1-1.5-0.2
				L6,33.9c0.5,0.1,0.9,0.1,1.4,0.2L7.3,35.4z M14.8,34.9l-0.3-1.2c0.5-0.1,0.9-0.2,1.4-0.4l0.4,1.2C15.8,34.6,15.3,34.8,14.8,34.9
				L14.8,34.9z M4.3,34.8c-0.5-0.1-1-0.3-1.5-0.4l0.4-1.2c0.5,0.1,0.9,0.3,1.4,0.4L4.3,34.8z M17.7,34l-0.4-1.2
				c0.4-0.2,0.9-0.4,1.3-0.6l0.5,1.1C18.7,33.6,18.2,33.8,17.7,34L17.7,34z M1.4,33.9c-0.5-0.2-0.9-0.4-1.4-0.6l0.5-1.1
				c0.4,0.2,0.9,0.4,1.3,0.6L1.4,33.9z M20.5,32.7l-0.6-1.1c0.4-0.2,0.8-0.5,1.2-0.7l0.7,1.1C21.4,32.2,20.9,32.5,20.5,32.7
				L20.5,32.7z M23.1,31.1l-0.7-1c0.4-0.3,0.8-0.6,1.1-0.9l0.8,1C23.9,30.5,23.5,30.8,23.1,31.1L23.1,31.1z M25.4,29.2l-0.9-0.9
				c0.3-0.3,0.7-0.7,1-1l0.9,0.8C26.1,28.5,25.7,28.8,25.4,29.2L25.4,29.2z M27.4,26.9l-1-0.8c0.3-0.4,0.6-0.8,0.9-1.1l1,0.7
				C28,26.1,27.7,26.5,27.4,26.9L27.4,26.9z M29.2,24.4l-1.1-0.6c0.2-0.4,0.5-0.8,0.7-1.3l1.1,0.6C29.7,23.6,29.4,24,29.2,24.4
				L29.2,24.4z M30.6,21.7l-1.1-0.5c0.2-0.4,0.4-0.9,0.5-1.3l1.2,0.4C30.9,20.8,30.7,21.3,30.6,21.7L30.6,21.7z M31.6,18.9l-1.2-0.3
				c0.1-0.5,0.2-0.9,0.3-1.4l1.2,0.3C31.8,17.9,31.7,18.4,31.6,18.9L31.6,18.9z M32.2,15.9L31,15.7c0.1-0.5,0.1-1,0.2-1.4l1.2,0.1
				C32.3,14.9,32.3,15.4,32.2,15.9L32.2,15.9z M32.4,12.9l-1.2,0v-0.2c0-0.4,0-0.9,0-1.3l1.2-0.1c0,0.4,0,0.9,0,1.3L32.4,12.9z
				 M31,10c-0.1-0.5-0.1-1-0.2-1.4L32,8.4c0.1,0.5,0.2,1,0.2,1.5L31,10z M30.5,7.2c-0.1-0.5-0.3-0.9-0.4-1.4l1.2-0.4
				c0.2,0.5,0.3,1,0.4,1.5L30.5,7.2z M29.5,4.5c-0.2-0.4-0.4-0.9-0.6-1.3l1.1-0.6c0.2,0.5,0.4,0.9,0.6,1.4L29.5,4.5z M28.3,1.9
				c-0.2-0.4-0.5-0.8-0.8-1.2l1-0.7c0.3,0.4,0.6,0.8,0.8,1.3L28.3,1.9z"/>
		</g>
		<g id="Group_5195" transform="translate(28.195 0)">
			<path id="Path_18804" class="st0" d="M0.5,1.4C0.3,1.2,0.2,1,0,0.8L1,0c0.2,0.2,0.3,0.4,0.5,0.6L0.5,1.4z"/>
		</g>
	</g>
	<path id="Path_18805" class="st0" d="M1696.7,524.8c0-0.7-0.5-1.2-1.2-1.2c-0.7,0-1.2,0.5-1.2,1.2c0,0.7,0.5,1.2,1.2,1.2
		S1696.7,525.4,1696.7,524.8L1696.7,524.8z"/>
	<g id="Group_5197" transform="translate(1699.572 506.202)">
		<path id="Path_18806" class="st0" d="M5.6,5.6H0V0h5.6V5.6z M1.2,4.3h3.1V1.2H1.2V4.3z"/>
	</g>
	<g id="Group_5198" transform="translate(1707.472 506.142)">
		<path id="Path_18807" class="st0" d="M5.6,5.6H0V0h5.6V5.6z M1.2,4.3h3.1V1.2H1.2V4.3z"/>
	</g>
	<g id="Group_5199" transform="translate(1699.572 498.638)">
		<path id="Path_18808" class="st0" d="M5.6,5.6H0V0h5.6V5.6z M1.2,4.3h3.1V1.2H1.2V4.3z"/>
	</g>
	<g id="Group_5200" transform="translate(1707.472 498.578)">
		<path id="Path_18809" class="st0" d="M5.6,5.6H0V0h5.6V5.6z M1.2,4.3h3.1V1.2H1.2V4.3z"/>
	</g>
	<g id="Group_5201" transform="translate(1718.678 486.601)">
		<path id="Path_18810" class="st0" d="M3.1,6.1C1.4,6.1,0,4.8,0,3.1C0,1.4,1.4,0,3.1,0s3.1,1.4,3.1,3.1c0,0,0,0,0,0
			C6.1,4.8,4.8,6.1,3.1,6.1z M3.1,1.2c-1,0-1.8,0.8-1.8,1.8c0,1,0.8,1.8,1.8,1.8c1,0,1.8-0.8,1.8-1.8c0,0,0,0,0,0
			C4.9,2.1,4.1,1.2,3.1,1.2L3.1,1.2z"/>
	</g>
</g>
</svg>
