<svg xmlns="http://www.w3.org/2000/svg" xmlns:xlink="http://www.w3.org/1999/xlink" width="45.023" height="45.512" viewBox="0 0 45.023 45.512">
  <defs>
    <linearGradient id="linear-gradient" x1="0.885" y1="0.096" x2="-0.493" y2="1.543" gradientUnits="objectBoundingBox">
      <stop offset="0" stop-color="#ff4d2a"/>
      <stop offset="0.553" stop-color="#ff0054"/>
      <stop offset="1" stop-color="#ff0076"/>
    </linearGradient>
    <linearGradient id="linear-gradient-2" x1="0" y1="0.5" x2="1" y2="0.5" xlink:href="#linear-gradient"/>
  </defs>
  <g id="Group_5069" data-name="Group 5069" transform="translate(-12235 -2016)">
    <g id="Group_5059" data-name="Group 5059" transform="translate(12243.02 2031.782)">
      <rect id="Rectangle_143" data-name="Rectangle 143" width="1.266" height="13.694" transform="translate(0 0)" fill="#c9c9d3"/>
    </g>
    <g id="Group_5060" data-name="Group 5060" transform="translate(12250.17 2023.806)">
      <rect id="Rectangle_144" data-name="Rectangle 144" width="14.627" height="1.266" transform="translate(0)" fill="#c9c9d3"/>
    </g>
    <g id="Group_5061" data-name="Group 5061" transform="translate(12270.6 2031.782)">
      <rect id="Rectangle_145" data-name="Rectangle 145" width="1.266" height="13.694" transform="translate(0 0)" fill="#c9c9d3"/>
    </g>
    <g id="Group_5062" data-name="Group 5062" transform="translate(12250.17 2052.625)">
      <rect id="Rectangle_146" data-name="Rectangle 146" width="14.771" height="1.266" transform="translate(0 0)" fill="#c9c9d3"/>
    </g>
    <g id="Group_5063" data-name="Group 5063" transform="translate(12262.103 2029.031)">
      <rect id="Rectangle_147" data-name="Rectangle 147" width="6.675" height="1.266" transform="matrix(0.753, -0.658, 0.658, 0.753, 0, 4.391)" fill="#c9c9d3"/>
    </g>
    <g id="Group_5064" data-name="Group 5064" transform="translate(12246.566 2042.086)">
      <rect id="Rectangle_148" data-name="Rectangle 148" width="7.454" height="1.266" transform="matrix(0.754, -0.657, 0.657, 0.754, 0, 4.9)" fill="#c9c9d3"/>
    </g>
    <g id="Group_5065" data-name="Group 5065" transform="translate(12262.169 2042.014)">
      <rect id="Rectangle_149" data-name="Rectangle 149" width="1.266" height="7.354" transform="translate(0 0.955) rotate(-48.936)" fill="#c9c9d3"/>
    </g>
    <g id="Group_5066" data-name="Group 5066" transform="translate(12247.438 2029.177)">
      <rect id="Rectangle_150" data-name="Rectangle 150" width="1.266" height="6.374" transform="translate(0 0.954) rotate(-48.93)" fill="#c9c9d3"/>
    </g>
    <g id="Group_5067" data-name="Group 5067" transform="translate(12250.343 2031.017)">
      <path id="Path_17764" data-name="Path 17764" d="M-895.371,579.008a7.228,7.228,0,0,1-7.219-7.22,7.228,7.228,0,0,1,7.219-7.22,7.228,7.228,0,0,1,7.22,7.22A7.228,7.228,0,0,1-895.371,579.008Zm0-13.173a5.96,5.96,0,0,0-5.953,5.954,5.96,5.96,0,0,0,5.953,5.954,5.96,5.96,0,0,0,5.954-5.954A5.96,5.96,0,0,0-895.371,565.835Z" transform="translate(902.59 -564.569)" fill="url(#linear-gradient)"/>
    </g>
    <path id="Path_17765" data-name="Path 17765" d="M-879.017,581.778a2.26,2.26,0,0,0-3.176-.315,2.242,2.242,0,0,0-.815,1.523,2.237,2.237,0,0,0,.177,1.1l-3.649,2.991a.633.633,0,0,0-.088.891.632.632,0,0,0,.49.232.631.631,0,0,0,.4-.143l.349-.286.787.96.979-.8-.787-.96.492-.4.787.96.979-.8-.787-.96.849-.7a2.236,2.236,0,0,0,1.044.389,2.262,2.262,0,0,0,.227.011,2.241,2.241,0,0,0,1.427-.512A2.26,2.26,0,0,0-879.017,581.778Zm-1.117,2.2a.992.992,0,0,1-1.395-.138.983.983,0,0,1-.22-.726.984.984,0,0,1,.358-.669.986.986,0,0,1,.627-.224.991.991,0,0,1,.767.362A.993.993,0,0,1-880.135,583.975Z" transform="translate(13140.172 1453.28)" fill="url(#linear-gradient-2)"/>
    <path id="Path_17766" data-name="Path 17766" d="M-783.756,576.492a.848.848,0,0,1-.848-.848.848.848,0,0,1,.848-.848.848.848,0,0,1,.848.848A.848.848,0,0,1-783.756,576.492Zm5.675-1.481h-3.532v1.266h3.532Z" transform="translate(13058.104 1458.227)" fill="#c9c9d3"/>
    <path id="Path_17767" data-name="Path 17767" d="M-783.756,592.21a.848.848,0,0,1-.848-.848.848.848,0,0,1,.848-.848.848.848,0,0,1,.848.848A.848.848,0,0,1-783.756,592.21Zm5.675-1.481h-3.532V592h3.532Z" transform="translate(13058.104 1445.594)" fill="#c9c9d3"/>
    <path id="Path_17768" data-name="Path 17768" d="M-783.756,607.928a.848.848,0,0,1-.848-.848.848.848,0,0,1,.848-.848.848.848,0,0,1,.848.848A.848.848,0,0,1-783.756,607.928Zm5.675-1.481h-3.532v1.266h3.532Z" transform="translate(13058.104 1432.961)" fill="#c9c9d3"/>
    <path id="Path_17769" data-name="Path 17769" d="M-783.756,623.645a.848.848,0,0,1-.848-.848.848.848,0,0,1,.848-.848.848.848,0,0,1,.848.848A.848.848,0,0,1-783.756,623.645Zm5.675-1.481h-3.532v1.266h3.532Z" transform="translate(13058.104 1420.329)" fill="#c9c9d3"/>
    <path id="Path_17770" data-name="Path 17770" d="M-847.038,687.556a.848.848,0,0,1,.848-.848.848.848,0,0,1,.848.848.848.848,0,0,1-.848.848A.848.848,0,0,1-847.038,687.556Zm1.481,5.675V689.7h-1.266v3.532Z" transform="translate(13108.284 1368.281)" fill="#c9c9d3"/>
    <path id="Path_17771" data-name="Path 17771" d="M-862.756,687.556a.848.848,0,0,1,.848-.848.848.848,0,0,1,.848.848.848.848,0,0,1-.848.848A.848.848,0,0,1-862.756,687.556Zm1.481,5.675V689.7h-1.266v3.532Z" transform="translate(13120.917 1368.281)" fill="#c9c9d3"/>
    <path id="Path_17772" data-name="Path 17772" d="M-878.474,687.556a.848.848,0,0,1,.848-.848.848.848,0,0,1,.848.848.847.847,0,0,1-.848.848A.848.848,0,0,1-878.474,687.556Zm1.481,5.675V689.7h-1.266v3.532Z" transform="translate(13133.551 1368.281)" fill="#c9c9d3"/>
    <path id="Path_17773" data-name="Path 17773" d="M-894.192,687.556a.848.848,0,0,1,.848-.848.848.848,0,0,1,.848.848.848.848,0,0,1-.848.848A.848.848,0,0,1-894.192,687.556Zm1.481,5.675V689.7h-1.266v3.532Z" transform="translate(13146.183 1368.281)" fill="#c9c9d3"/>
    <path id="Path_17774" data-name="Path 17774" d="M-892.289,493.733a.848.848,0,0,1-.848.848.848.848,0,0,1-.848-.848.848.848,0,0,1,.848-.848A.848.848,0,0,1-892.289,493.733Zm-1.481-5.675v3.532h1.266v-3.532Z" transform="translate(13146.016 1527.942)" fill="#c9c9d3"/>
    <path id="Path_17775" data-name="Path 17775" d="M-876.571,493.733a.848.848,0,0,1-.848.848.848.848,0,0,1-.848-.848.848.848,0,0,1,.848-.848A.848.848,0,0,1-876.571,493.733Zm-1.481-5.675v3.532h1.266v-3.532Z" transform="translate(13133.383 1527.942)" fill="#c9c9d3"/>
    <path id="Path_17776" data-name="Path 17776" d="M-860.853,493.733a.848.848,0,0,1-.848.848.848.848,0,0,1-.848-.848.848.848,0,0,1,.848-.848A.848.848,0,0,1-860.853,493.733Zm-1.481-5.675v3.532h1.266v-3.532Z" transform="translate(13120.75 1527.942)" fill="#c9c9d3"/>
    <path id="Path_17778" data-name="Path 17778" d="M-975.936,575.645a.848.848,0,0,1,.848-.848.848.848,0,0,1,.848.848.848.848,0,0,1-.848.848A.848.848,0,0,1-975.936,575.645Zm-4.827.633h3.532v-1.266h-3.532Z" transform="translate(13215.763 1458.227)" fill="#c9c9d3"/>
    <path id="Path_17779" data-name="Path 17779" d="M-975.936,591.363a.848.848,0,0,1,.848-.848.848.848,0,0,1,.848.848.848.848,0,0,1-.848.848A.848.848,0,0,1-975.936,591.363Zm-4.827.633h3.532V590.73h-3.532Z" transform="translate(13215.763 1445.594)" fill="#c9c9d3"/>
    <path id="Path_17780" data-name="Path 17780" d="M-975.936,607.081a.848.848,0,0,1,.848-.848.848.848,0,0,1,.848.848.848.848,0,0,1-.848.848A.848.848,0,0,1-975.936,607.081Zm-4.827.633h3.532v-1.266h-3.532Z" transform="translate(13215.763 1432.961)" fill="#c9c9d3"/>
    <path id="Path_17781" data-name="Path 17781" d="M-975.936,622.8a.848.848,0,0,1,.848-.848.848.848,0,0,1,.848.848.848.848,0,0,1-.848.848A.848.848,0,0,1-975.936,622.8Zm-4.827.633h3.532v-1.266h-3.532Z" transform="translate(13215.763 1420.329)" fill="#c9c9d3"/>
    <path id="Path_17782" data-name="Path 17782" d="M-825.255,488.6l-7.107,4.1v8.2l7.107,4.1,7.106-4.1v-8.2Zm5.229,4.481-5.183,2.992-5.229-3.019,5.183-2.993Zm-5.183,3.723h0Zm-5.886-2.668,5.253,3.033v6.037l-5.253-3.031Zm6.519,9.017v-5.984l5.162-2.98v5.986Z" transform="translate(13096.488 1527.507)" fill="url(#linear-gradient-2)"/>
    <path id="Path_17783" data-name="Path 17783" d="M-965.779,634.518l-7.107,4.1v8.2l7.107,4.1,7.106-4.1v-8.2Zm5.228,4.481-5.183,2.992-5.228-3.019,5.183-2.993Zm-5.183,3.723h0Zm-5.886-2.667,5.253,3.033v6.037l-5.253-3.031Zm6.519,9.017v-5.984l5.162-2.98v5.986Z" transform="translate(13209.432 1410.228)" fill="url(#linear-gradient-2)"/>
    <path id="Path_17784" data-name="Path 17784" d="M-965.779,488.6l-7.107,4.1v8.2l7.107,4.1,7.106-4.1v-8.2Zm5.229,4.481-5.183,2.992-5.229-3.019,5.183-2.993Zm-5.183,3.723h0Zm-5.886-2.668,5.253,3.033v6.037l-5.253-3.031Zm6.519,9.017v-5.984l5.162-2.98v5.986Z" transform="translate(13209.432 1527.507)" fill="url(#linear-gradient-2)"/>
    <path id="Path_17785" data-name="Path 17785" d="M-825.255,634.518l-7.107,4.1v8.2l7.107,4.1,7.106-4.1v-8.2Zm-.588,14.606-5.253-3.031v-6.039l5.253,3.033Zm-4.6-10.151,5.183-2.993,5.228,3.019-5.183,2.992Zm11.023,7.121-5.162,2.978v-5.984l5.162-2.98Z" transform="translate(13096.488 1410.228)" fill="url(#linear-gradient-2)"/>
    <path id="Path_17786" data-name="Path 17786" d="M-845.136,493.733a.848.848,0,0,1-.848.848.848.848,0,0,1-.848-.848.848.848,0,0,1,.848-.848A.848.848,0,0,1-845.136,493.733Zm-1.481-5.675v3.532h1.266v-3.532Z" transform="translate(13108.117 1527.942)" fill="#c9c9d3"/>
  </g>
</svg>
