<svg xmlns="http://www.w3.org/2000/svg" xmlns:xlink="http://www.w3.org/1999/xlink" width="119.736" height="119.736" viewBox="0 0 119.736 119.736">
  <defs>
    <linearGradient id="linear-gradient" x1="0.5" x2="0.5" y2="1" gradientUnits="objectBoundingBox">
      <stop offset="0" stop-color="#ff4d2a"/>
      <stop offset="0.553" stop-color="#ff0054"/>
      <stop offset="1" stop-color="#ff0076"/>
    </linearGradient>
  </defs>
  <g id="Group_7563" data-name="Group 7563" transform="translate(-429 -565.805)">
    <circle id="Ellipse_2283" data-name="Ellipse 2283" cx="59.868" cy="59.868" r="59.868" transform="translate(429 565.805)" fill="url(#linear-gradient)"/>
    <g id="Group_7516" data-name="Group 7516" transform="translate(457.833 586.758)">
      <path id="Path_23043" data-name="Path 23043" d="M2525.685,145.979a1.193,1.193,0,1,0-1.193-1.193v0A1.193,1.193,0,0,0,2525.685,145.979Z" transform="translate(-2494.178 -111.704)" fill="#fff"/>
      <path id="Path_23044" data-name="Path 23044" d="M2510.234,174.779h7.057v-21.7h-7.058Zm4.918-2.136h-2.7l2.7-10.745Zm-2.782-17.428h2.782v3.178l-2.782,11.068Z" transform="translate(-2492.011 -113.146)" fill="#cf0"/>
      <path id="Path_23045" data-name="Path 23045" d="M2530.307,116.191a11.387,11.387,0,0,0-12.246-2.217l-.032.014a1.069,1.069,0,0,0,.866,1.955,9.134,9.134,0,0,1,3.585-.725,9.247,9.247,0,0,1,6.36,2.53,1.068,1.068,0,0,0,1.464-1.555Z" transform="translate(-2493.099 -107.067)" fill="#cf0"/>
      <path id="Path_23046" data-name="Path 23046" d="M2514.914,117.182h0a1.069,1.069,0,0,0-1.51.041,11.6,11.6,0,0,0-1.179,1.466,1.069,1.069,0,0,0,1.769,1.2,9.251,9.251,0,0,1,.961-1.193,1.071,1.071,0,0,0-.04-1.511Z" transform="translate(-2492.288 -107.646)" fill="#cf0"/>
      <path id="Path_23047" data-name="Path 23047" d="M2493.005,169.612a1.149,1.149,0,0,0,1.118-1.18v-9.256a1.149,1.149,0,0,0-2.3.062v9.194c0,.02,0,.041,0,.062A1.149,1.149,0,0,0,2493.005,169.612Z" transform="translate(-2489.214 -113.903)" fill="#cf0"/>
      <path id="Path_23048" data-name="Path 23048" d="M2530.646,140.953a1.193,1.193,0,1,0-1.193-1.192v0A1.193,1.193,0,0,0,2530.646,140.953Z" transform="translate(-2494.933 -110.941)" fill="#fff"/>
      <path id="Path_23049" data-name="Path 23049" d="M2525.685,140.953a1.193,1.193,0,1,0-1.193-1.192v0A1.193,1.193,0,0,0,2525.685,140.953Z" transform="translate(-2494.178 -110.941)" fill="#fff"/>
      <path id="Path_23050" data-name="Path 23050" d="M2530.646,145.979a1.193,1.193,0,1,0-1.193-1.193v0A1.193,1.193,0,0,0,2530.646,145.979Z" transform="translate(-2494.933 -111.704)" fill="#fff"/>
      <path id="Path_23051" data-name="Path 23051" d="M2494.123,176.835v-1.709a1.149,1.149,0,0,0-2.3,0v1.709a1.149,1.149,0,1,0,2.3,0Z" transform="translate(-2489.214 -116.327)" fill="#cf0"/>
      <path id="Path_23052" data-name="Path 23052" d="M2553.18,154.985v-.062a1.149,1.149,0,0,0-2.3.062v9.191c0,.021,0,.042,0,.063a1.149,1.149,0,1,0,2.3-.063Z" transform="translate(-2498.189 -113.256)" fill="#cf0"/>
      <path id="Path_23053" data-name="Path 23053" d="M2498.795,165.357a1.15,1.15,0,0,0,1.117-1.18v-9.255a1.149,1.149,0,1,0-2.3.062v9.193h0c0,.02,0,.041,0,.062A1.149,1.149,0,0,0,2498.795,165.357Z" transform="translate(-2490.094 -113.256)" fill="#cf0"/>
      <path id="Path_23054" data-name="Path 23054" d="M2538.781,167.358v-22.7h.628l.17-.015a14.015,14.015,0,1,0-6.6-27.177,15.759,15.759,0,0,0-30.875,3.054,12.191,12.191,0,1,0-2.334,24.269q.584.057,1.172.057h.281v22.519c-5.985,1.281-9.127,3.053-9.328,5.284a1.35,1.35,0,0,0-.017.226l.005.135v5.32c0,5.281,16.821,7.2,28.128,7.2s28.118-1.917,28.118-7.2v-5.365c0-.03.005-.06.005-.091C2548.129,170.553,2544.98,168.7,2538.781,167.358Zm-37.563-24.652h-.278a10.055,10.055,0,0,1,0-20.109,11,11,0,0,1,1.987.188l1.254.23.006-1.272a13.622,13.622,0,0,1,26.981-2.653l.254,1.288,1.208-.51a11.884,11.884,0,1,1,6.681,22.653h-.53l0-1.065.47,0a10.814,10.814,0,1,0-6.208-20.6l-2.413,1.01-.509-2.572a12.556,12.556,0,0,0-24.867,2.449l-.007,2.558-2.515-.464a9.874,9.874,0,0,0-1.794-.17,8.989,8.989,0,1,0-.494,17.971q.246.008.494,0h.281Zm0-16.58v14.658h-.281a8.132,8.132,0,0,1-.166-16.263h.166a9.176,9.176,0,0,1,1.64.155l3.519.649.01-3.58a11.7,11.7,0,0,1,23.175-2.29l.708,3.6,3.381-1.417a9.966,9.966,0,1,1,5.8,18.963h-.389v-5.975l-8.5-8.5Zm33.331,10.01.169.167v33.169h-29.439V130.186h23.32l.17.17v5.78ZM2530.909,134v-4.226l4.226,4.225Zm-2.136-4.667h-24.346v40.992h31.149v-34.19h1.069V171.39h-33.287V128.262h25.415Zm-8.766,54.056c-17.065,0-25.992-3.295-25.992-5.061V175.89a11.793,11.793,0,0,0,1.3.684c3.407,1.552,9.25,2.681,16.161,3.193,2.7.2,5.572.309,8.519.309a107.8,107.8,0,0,0,13.3-.783,42.08,42.08,0,0,0,11.378-2.72l.008-.005c.216-.1.418-.2.613-.3l.108-.057q.305-.164.576-.332l0,2.452C2545.989,180.045,2536.818,183.389,2520.007,183.389Zm25.982-10.521a.841.841,0,0,1-.264.51,6.105,6.105,0,0,1-1.921,1.242h-.007a39.568,39.568,0,0,1-10.465,2.5,105.58,105.58,0,0,1-13.336.808c-2.821,0-5.586-.1-8.2-.293-6.688-.494-12.408-1.572-15.593-3.021-1.582-.714-2.166-1.379-2.184-1.732v-.035c.034-.505,1.426-2.006,7.207-3.3v3.979h37.56v-3.985c5.889,1.332,7.208,2.84,7.208,3.327Z" transform="translate(-2488.746 -105.989)" fill="#fff"/>
      <path id="Path_23055" data-name="Path 23055" d="M2497.615,172.583c0,.021,0,.042,0,.063a1.149,1.149,0,1,0,2.3-.063v-1.709a1.149,1.149,0,0,0-2.3,0Z" transform="translate(-2490.094 -115.681)" fill="#cf0"/>
      <path id="Path_23056" data-name="Path 23056" d="M2557.789,158.059a1.148,1.148,0,0,0-1.117,1.18v9.193c0,.02,0,.041,0,.062a1.149,1.149,0,0,0,2.3-.062v-9.193h0v-.061A1.151,1.151,0,0,0,2557.789,158.059Z" transform="translate(-2499.069 -113.903)" fill="#cf0"/>
      <path id="Path_23057" data-name="Path 23057" d="M2552.063,169.756a1.148,1.148,0,0,0-1.18,1.117v1.709c0,.021,0,.042,0,.063a1.149,1.149,0,0,0,2.3-.063v-1.709A1.149,1.149,0,0,0,2552.063,169.756Z" transform="translate(-2498.189 -115.681)" fill="#cf0"/>
      <path id="Path_23058" data-name="Path 23058" d="M2557.852,174.011a1.148,1.148,0,0,0-1.18,1.118v1.708c0,.021,0,.042,0,.063a1.149,1.149,0,1,0,2.3-.063v-1.708A1.149,1.149,0,0,0,2557.852,174.011Z" transform="translate(-2499.069 -116.327)" fill="#cf0"/>
      <rect id="Rectangle_3263" data-name="Rectangle 3263" width="5.884" height="2.459" transform="translate(38.19 44.556)" fill="#fff"/>
      <path id="Path_23059" data-name="Path 23059" d="M2529.019,149.4a1.068,1.068,0,0,0-1.442.074l-5.179,5.257a1.068,1.068,0,1,0,1.522,1.5l4.495-4.561,2.268,1.881a1.069,1.069,0,0,0,1.454-.084l5.851-6.126a1.069,1.069,0,0,0-1.544-1.477l-5.167,5.406Z" transform="translate(-2493.814 -112.003)" fill="#cf0"/>
      <rect id="Rectangle_3264" data-name="Rectangle 3264" width="5.884" height="2.459" transform="translate(38.19 59.321)" fill="#fff"/>
      <path id="Path_23060" data-name="Path 23060" d="M2522.2,176.269h7.056V162.885h-7.054Zm4.918-2.136h-2.29l2.29-4.527Zm-2.784-9.111h2.784v2.688l-2.784,5.512Z" transform="translate(-2493.831 -114.636)" fill="#fff"/>
      <rect id="Rectangle_3265" data-name="Rectangle 3265" width="5.884" height="2.459" transform="translate(38.19 54.402)" fill="#fff"/>
      <rect id="Rectangle_3266" data-name="Rectangle 3266" width="5.884" height="2.459" transform="translate(38.19 49.482)" fill="#fff"/>
      <path id="Path_23061" data-name="Path 23061" d="M2514.31,136.7a5,5,0,1,0,3.538,1.465A5,5,0,0,0,2514.31,136.7Zm2.028,7.032a2.937,2.937,0,0,1-4.056,0,2.868,2.868,0,1,1,4.056,0Z" transform="translate(-2491.871 -110.656)" fill="#cf0"/>
    </g>
  </g>
</svg>
