<svg xmlns="http://www.w3.org/2000/svg" xmlns:xlink="http://www.w3.org/1999/xlink" width="87.554" height="87.554" viewBox="0 0 87.554 87.554">
  <defs>
    <linearGradient id="linear-gradient" x1="0.5" x2="0.5" y2="1" gradientUnits="objectBoundingBox">
      <stop offset="0" stop-color="#ff4d2a"/>
      <stop offset="0.553" stop-color="#ff0054"/>
      <stop offset="1" stop-color="#ff0076"/>
    </linearGradient>
  </defs>
  <g id="Group_7563" data-name="Group 7563" transform="translate(-429 -565.805)">
    <circle id="Ellipse_2283" data-name="Ellipse 2283" cx="43.777" cy="43.777" r="43.777" transform="translate(429 565.805)" fill="url(#linear-gradient)"/>
    <g id="Group_7516" data-name="Group 7516" transform="translate(450.083 581.126)">
      <path id="Path_23043" data-name="Path 23043" d="M2525.364,145.338a.872.872,0,1,0-.873-.872h0A.872.872,0,0,0,2525.364,145.338Z" transform="translate(-2502.326 -120.275)" fill="#fff"/>
      <path id="Path_23044" data-name="Path 23044" d="M2510.233,168.945h5.161V153.076h-5.161Zm3.6-1.562h-1.976l1.976-7.857Zm-2.034-12.744h2.034v2.324l-2.034,8.093Z" transform="translate(-2496.909 -123.878)" fill="#cf0"/>
      <path id="Path_23045" data-name="Path 23045" d="M2526.836,115.355a8.326,8.326,0,0,0-8.954-1.621l-.023.01a.782.782,0,0,0,.633,1.429,6.678,6.678,0,0,1,2.621-.53,6.762,6.762,0,0,1,4.651,1.85.781.781,0,0,0,1.071-1.137Z" transform="translate(-2499.629 -108.683)" fill="#cf0"/>
      <path id="Path_23046" data-name="Path 23046" d="M2514.145,117.1h0a.782.782,0,0,0-1.1.03,8.492,8.492,0,0,0-.862,1.072.781.781,0,0,0,1.293.876,6.764,6.764,0,0,1,.7-.872.783.783,0,0,0-.029-1.1Z" transform="translate(-2497.6 -110.13)" fill="#cf0"/>
      <path id="Path_23047" data-name="Path 23047" d="M2492.688,166.507a.84.84,0,0,0,.817-.863v-6.768a.84.84,0,1,0-1.68.045v6.723c0,.015,0,.03,0,.045A.84.84,0,0,0,2492.688,166.507Z" transform="translate(-2489.916 -125.771)" fill="#cf0"/>
      <path id="Path_23048" data-name="Path 23048" d="M2530.325,140.312a.872.872,0,1,0-.873-.872h0A.872.872,0,0,0,2530.325,140.312Z" transform="translate(-2504.211 -118.366)" fill="#fff"/>
      <path id="Path_23049" data-name="Path 23049" d="M2525.364,140.312a.872.872,0,1,0-.873-.872h0A.872.872,0,0,0,2525.364,140.312Z" transform="translate(-2502.326 -118.366)" fill="#fff"/>
      <path id="Path_23050" data-name="Path 23050" d="M2530.325,145.338a.872.872,0,1,0-.873-.872h0A.872.872,0,0,0,2530.325,145.338Z" transform="translate(-2504.211 -120.275)" fill="#fff"/>
      <path id="Path_23051" data-name="Path 23051" d="M2493.506,176.075v-1.249a.84.84,0,0,0-1.68,0v1.249a.84.84,0,1,0,1.68,0Z" transform="translate(-2489.916 -131.83)" fill="#cf0"/>
      <path id="Path_23052" data-name="Path 23052" d="M2552.563,154.667v-.045a.84.84,0,0,0-1.68.045v6.721c0,.016,0,.03,0,.046a.84.84,0,1,0,1.68-.046Z" transform="translate(-2512.352 -124.155)" fill="#cf0"/>
      <path id="Path_23053" data-name="Path 23053" d="M2498.477,162.252a.841.841,0,0,0,.817-.863v-6.768a.84.84,0,1,0-1.68.045v6.722h0c0,.015,0,.03,0,.045A.84.84,0,0,0,2498.477,162.252Z" transform="translate(-2492.115 -124.155)" fill="#cf0"/>
      <path id="Path_23054" data-name="Path 23054" d="M2525.333,150.864v-16.6h.459l.124-.011a10.248,10.248,0,1,0-4.826-19.873,11.523,11.523,0,0,0-22.576,2.233,8.914,8.914,0,1,0-1.707,17.746q.427.042.857.042h.205v16.467c-4.376.936-6.674,2.232-6.821,3.864a.988.988,0,0,0-.012.165l0,.1v3.89c0,3.862,12.3,5.263,20.568,5.263s20.561-1.4,20.561-5.263v-3.923c0-.022,0-.044,0-.066C2532.168,153.2,2529.865,151.844,2525.333,150.864Zm-27.467-18.026h-.2a7.352,7.352,0,0,1,0-14.7,8.044,8.044,0,0,1,1.453.138l.917.168,0-.93a9.961,9.961,0,0,1,19.729-1.94l.186.942.884-.373a8.69,8.69,0,1,1,4.885,16.565h-.387v-.779l.344,0a7.908,7.908,0,1,0-4.54-15.061l-1.765.739-.372-1.881a9.181,9.181,0,0,0-18.184,1.791l0,1.87-1.839-.339a7.225,7.225,0,0,0-1.312-.124,6.573,6.573,0,1,0-.362,13.141q.18.006.362,0h.205Zm0-12.124v10.718h-.205a5.946,5.946,0,0,1-.122-11.892h.122a6.713,6.713,0,0,1,1.2.113l2.573.474.007-2.618a8.557,8.557,0,0,1,16.946-1.674l.518,2.632,2.472-1.036a7.288,7.288,0,1,1,4.238,13.866h-.285v-4.369l-6.214-6.214Zm24.372,7.32.124.122v24.254h-21.526V123.682h17.052l.124.125v4.227Zm-2.664-1.562v-3.09l3.09,3.089Zm-1.562-3.413h-17.8v29.975h22.777v-25h.782v25.779h-24.341V122.276h18.584Zm-6.41,39.527c-12.478,0-19.006-2.409-19.006-3.7V157.1a8.612,8.612,0,0,0,.953.5c2.491,1.135,6.764,1.96,11.817,2.335,1.978.148,4.074.226,6.229.226a78.831,78.831,0,0,0,9.727-.572,30.769,30.769,0,0,0,8.32-1.989l.006,0c.158-.072.306-.147.448-.221l.079-.042q.223-.12.421-.243l0,1.793C2530.6,160.141,2523.9,162.586,2511.6,162.586Zm19-7.693a.615.615,0,0,1-.193.373,4.465,4.465,0,0,1-1.4.908H2529A28.934,28.934,0,0,1,2521.35,158a77.2,77.2,0,0,1-9.751.591c-2.062,0-4.084-.074-6-.215-4.891-.361-9.073-1.15-11.4-2.209-1.157-.522-1.584-1.008-1.6-1.266v-.025c.025-.37,1.043-1.467,5.27-2.416v2.909h27.465V152.46c4.306.974,5.271,2.077,5.271,2.433Z" transform="translate(-2488.746 -105.989)" fill="#fff"/>
      <path id="Path_23055" data-name="Path 23055" d="M2497.615,171.823c0,.016,0,.031,0,.046a.84.84,0,1,0,1.68-.046v-1.249a.84.84,0,0,0-1.68,0Z" transform="translate(-2492.115 -130.215)" fill="#cf0"/>
      <path id="Path_23056" data-name="Path 23056" d="M2557.488,158.059a.84.84,0,0,0-.817.863v6.722c0,.015,0,.03,0,.045a.84.84,0,0,0,1.68-.045v-6.722h0v-.045A.841.841,0,0,0,2557.488,158.059Z" transform="translate(-2514.551 -125.771)" fill="#cf0"/>
      <path id="Path_23057" data-name="Path 23057" d="M2551.745,169.756a.84.84,0,0,0-.863.817v1.249c0,.016,0,.031,0,.046a.84.84,0,0,0,1.68-.046v-1.249A.84.84,0,0,0,2551.745,169.756Z" transform="translate(-2512.352 -130.215)" fill="#cf0"/>
      <path id="Path_23058" data-name="Path 23058" d="M2557.534,174.011a.839.839,0,0,0-.863.817v1.249c0,.016,0,.031,0,.046a.84.84,0,1,0,1.68-.046v-1.249A.84.84,0,0,0,2557.534,174.011Z" transform="translate(-2514.551 -131.831)" fill="#cf0"/>
      <rect id="Rectangle_3263" data-name="Rectangle 3263" width="4.303" height="1.798" transform="translate(27.925 32.581)" fill="#fff"/>
      <path id="Path_23059" data-name="Path 23059" d="M2527.157,148.37a.781.781,0,0,0-1.054.054l-3.787,3.844a.781.781,0,1,0,1.113,1.1l3.287-3.335,1.658,1.375a.781.781,0,0,0,1.063-.061l4.279-4.48a.782.782,0,0,0-1.129-1.08l-3.778,3.953Z" transform="translate(-2501.414 -121.021)" fill="#cf0"/>
      <rect id="Rectangle_3264" data-name="Rectangle 3264" width="4.303" height="1.798" transform="translate(27.925 43.377)" fill="#fff"/>
      <path id="Path_23060" data-name="Path 23060" d="M2522.2,172.672h5.16v-9.787h-5.158Zm3.6-1.562h-1.674l1.674-3.31Zm-2.036-6.662h2.036v1.966l-2.036,4.031Z" transform="translate(-2501.457 -127.604)" fill="#fff"/>
      <rect id="Rectangle_3265" data-name="Rectangle 3265" width="4.303" height="1.798" transform="translate(27.925 39.78)" fill="#fff"/>
      <rect id="Rectangle_3266" data-name="Rectangle 3266" width="4.303" height="1.798" transform="translate(27.925 36.182)" fill="#fff"/>
      <path id="Path_23061" data-name="Path 23061" d="M2512.966,136.7a3.658,3.658,0,1,0,2.587,1.072A3.659,3.659,0,0,0,2512.966,136.7Zm1.482,5.142a2.147,2.147,0,0,1-2.966,0,2.1,2.1,0,1,1,2.966,0Z" transform="translate(-2496.557 -117.655)" fill="#cf0"/>
    </g>
  </g>
</svg>
